<svg width="300" height="120" viewBox="0 0 300 120" fill="none" xmlns="http://www.w3.org/2000/svg">
<rect x="23.4332" y="93.8627" width="263.741" height="26.0901" rx="10" transform="rotate(-2.5 23.4332 93.8627)" fill="#DFF3FC"/>
<path d="M274.391 103.958C273.687 103.976 273.018 103.882 272.383 103.674C271.748 103.456 271.2 103.124 270.74 102.677L271.365 101.476C271.856 101.89 272.344 102.187 272.829 102.366C273.324 102.545 273.812 102.629 274.292 102.616C274.782 102.603 275.18 102.502 275.484 102.313C275.789 102.113 275.936 101.831 275.926 101.469C275.919 101.202 275.834 101.007 275.671 100.883C275.508 100.76 275.27 100.654 274.958 100.566C274.657 100.478 274.292 100.381 273.862 100.275C273.261 100.109 272.754 99.9354 272.344 99.7541C271.934 99.5621 271.623 99.3248 271.413 99.0422C271.203 98.7596 271.092 98.3944 271.081 97.9465C271.066 97.4027 271.193 96.9352 271.46 96.5441C271.727 96.153 272.103 95.8497 272.589 95.6343C273.084 95.4185 273.658 95.3022 274.308 95.2851C274.916 95.2692 275.478 95.3505 275.995 95.5291C276.522 95.6966 276.988 95.9725 277.393 96.3567L276.672 97.544C276.29 97.2126 275.899 96.9721 275.501 96.8224C275.113 96.6725 274.695 96.6035 274.247 96.6152C273.991 96.6219 273.746 96.6603 273.514 96.7304C273.28 96.7899 273.086 96.9017 272.93 97.0658C272.785 97.219 272.716 97.4342 272.723 97.7115C272.729 97.9354 272.798 98.115 272.929 98.2502C273.061 98.3855 273.256 98.4978 273.514 98.587C273.773 98.6763 274.09 98.7747 274.466 98.8822C275.122 99.0571 275.681 99.2345 276.145 99.4145C276.608 99.5837 276.966 99.8144 277.219 100.107C277.483 100.388 277.621 100.784 277.634 101.296C277.656 102.107 277.368 102.749 276.773 103.223C276.187 103.687 275.393 103.932 274.391 103.958Z" fill="#2D75B8"/>
<path d="M265.375 104.194C264.724 104.211 264.129 104.115 263.59 103.905C263.062 103.684 262.6 103.381 262.206 102.997C261.812 102.601 261.501 102.151 261.274 101.644C261.058 101.127 260.942 100.575 260.927 99.989C260.906 99.2 261.069 98.4755 261.414 97.8155C261.759 97.1449 262.252 96.6038 262.892 96.1923C263.532 95.7701 264.289 95.5475 265.164 95.5246C266.038 95.5017 266.795 95.6846 267.435 96.0733C268.085 96.4511 268.594 96.9606 268.963 97.6018C269.332 98.2431 269.526 98.9369 269.546 99.6833C269.549 99.8113 269.547 99.934 269.54 100.052C269.532 100.159 269.523 100.249 269.515 100.324L262.813 100.5C262.858 100.989 263.002 101.418 263.247 101.785C263.501 102.141 263.818 102.421 264.197 102.624C264.576 102.817 264.978 102.908 265.405 102.897C265.874 102.885 266.313 102.756 266.723 102.51C267.143 102.264 267.423 101.948 267.562 101.56L269.077 101.952C268.906 102.362 268.639 102.737 268.274 103.078C267.92 103.407 267.495 103.674 266.999 103.879C266.502 104.074 265.961 104.179 265.375 104.194ZM262.734 99.3335L267.789 99.2011C267.744 98.7221 267.594 98.3046 267.34 97.9485C267.095 97.5814 266.784 97.3015 266.405 97.1086C266.037 96.9049 265.629 96.8088 265.181 96.8206C264.744 96.832 264.342 96.9493 263.974 97.1723C263.617 97.3844 263.326 97.6801 263.101 98.0595C262.876 98.4281 262.754 98.8528 262.734 99.3335Z" fill="#2D75B8"/>
<path d="M256.159 92.5913L257.919 92.5452L258.161 101.806C258.172 102.233 258.243 102.503 258.374 102.617C258.505 102.731 258.667 102.785 258.859 102.78C259.072 102.775 259.269 102.748 259.449 102.701C259.64 102.653 259.804 102.595 259.941 102.528L260.233 103.913C259.98 104.026 259.678 104.124 259.328 104.208C258.978 104.292 258.665 104.338 258.388 104.345C257.79 104.361 257.317 104.208 256.967 103.886C256.617 103.554 256.434 103.089 256.418 102.492L256.159 92.5913Z" fill="#2D75B8"/>
<path d="M246.429 102.081C246.415 101.548 246.552 101.08 246.84 100.678C247.139 100.265 247.552 99.9445 248.08 99.7172C248.607 99.4794 249.222 99.3512 249.926 99.3328C250.299 99.323 250.679 99.3397 251.064 99.383C251.46 99.426 251.809 99.5022 252.11 99.6117L252.096 99.0839C252.081 98.4974 251.893 98.0435 251.533 97.7222C251.172 97.4008 250.661 97.2488 250 97.2661C249.531 97.2784 249.091 97.3753 248.679 97.5568C248.268 97.7276 247.831 97.9685 247.37 98.2793L246.747 97.1112C247.292 96.7235 247.839 96.4317 248.389 96.236C248.949 96.0399 249.538 95.9338 250.157 95.9176C251.276 95.8882 252.164 96.1638 252.819 96.7441C253.485 97.3136 253.832 98.1421 253.861 99.2297L253.943 102.349C253.948 102.551 253.984 102.694 254.05 102.778C254.127 102.861 254.251 102.906 254.421 102.912L254.458 104.32C254.299 104.356 254.156 104.381 254.028 104.395C253.9 104.409 253.794 104.417 253.709 104.419C253.335 104.429 253.05 104.346 252.854 104.17C252.657 103.994 252.54 103.783 252.501 103.539L252.441 103.06C252.09 103.539 251.636 103.914 251.078 104.184C250.519 104.455 249.952 104.598 249.376 104.613C248.822 104.627 248.323 104.529 247.88 104.316C247.437 104.093 247.087 103.787 246.832 103.399C246.576 103.011 246.442 102.572 246.429 102.081ZM251.769 102.454C251.893 102.312 251.991 102.17 252.062 102.03C252.133 101.889 252.167 101.766 252.164 101.659L252.139 100.699C251.837 100.59 251.52 100.513 251.188 100.468C250.856 100.413 250.53 100.389 250.21 100.398C249.57 100.414 249.051 100.556 248.653 100.823C248.265 101.089 248.077 101.446 248.089 101.894C248.095 102.139 248.165 102.372 248.299 102.592C248.443 102.813 248.64 102.989 248.889 103.121C249.149 103.253 249.465 103.314 249.838 103.304C250.222 103.294 250.588 103.21 250.936 103.052C251.284 102.893 251.561 102.694 251.769 102.454Z" fill="#2D75B8"/>
<path d="M242.907 104.622L242.688 96.2572L244.448 96.2111L244.667 104.576L242.907 104.622ZM242.652 94.8816L242.602 92.9463L244.361 92.9002L244.412 94.8356L242.652 94.8816Z" fill="#2D75B8"/>
<path d="M237.448 104.925C236.797 104.942 236.203 104.846 235.664 104.636C235.135 104.415 234.673 104.107 234.279 103.712C233.884 103.317 233.574 102.861 233.347 102.344C233.131 101.827 233.015 101.275 232.999 100.688C232.979 99.8993 233.136 99.1749 233.471 98.5152C233.816 97.8553 234.304 97.3197 234.933 96.9084C235.573 96.4968 236.336 96.2795 237.221 96.2563C238.074 96.234 238.82 96.4065 239.459 96.7739C240.109 97.1303 240.591 97.6192 240.906 98.2405L239.209 98.8291C239.008 98.4823 238.729 98.2175 238.372 98.0348C238.025 97.8411 237.644 97.7497 237.228 97.7606C236.759 97.7729 236.336 97.9067 235.958 98.162C235.591 98.4064 235.301 98.7447 235.089 99.1771C234.886 99.5986 234.792 100.087 234.807 100.641C234.821 101.174 234.945 101.656 235.181 102.088C235.416 102.508 235.723 102.842 236.103 103.088C236.494 103.323 236.923 103.435 237.392 103.422C237.68 103.415 237.956 103.359 238.22 103.257C238.495 103.143 238.731 102.998 238.929 102.822C239.127 102.635 239.266 102.434 239.346 102.219L241.086 102.685C240.916 103.106 240.654 103.481 240.3 103.81C239.956 104.139 239.542 104.406 239.056 104.611C238.581 104.805 238.045 104.91 237.448 104.925Z" fill="#2D75B8"/>
<path d="M227.474 105.186C226.813 105.204 226.218 105.107 225.69 104.897C225.161 104.676 224.7 104.368 224.305 103.973C223.922 103.578 223.622 103.127 223.406 102.62C223.189 102.103 223.074 101.551 223.058 100.965C223.043 100.378 223.13 99.821 223.319 99.2933C223.507 98.7655 223.783 98.2994 224.146 97.8951C224.519 97.4799 224.964 97.1534 225.481 96.9158C226.008 96.6673 226.597 96.5345 227.247 96.5175C227.898 96.5004 228.487 96.6024 229.016 96.8233C229.555 97.0332 230.016 97.3359 230.4 97.7313C230.794 98.1158 231.1 98.5667 231.316 99.0838C231.532 99.601 231.648 100.153 231.663 100.739C231.679 101.326 231.592 101.883 231.403 102.411C231.214 102.928 230.933 103.394 230.559 103.809C230.197 104.224 229.752 104.556 229.225 104.805C228.708 105.042 228.125 105.169 227.474 105.186ZM224.866 100.933C224.88 101.466 225.005 101.943 225.24 102.364C225.475 102.785 225.782 103.113 226.162 103.348C226.541 103.584 226.966 103.695 227.435 103.683C227.893 103.671 228.306 103.537 228.673 103.282C229.05 103.016 229.345 102.667 229.558 102.235C229.77 101.792 229.87 101.309 229.856 100.787C229.842 100.253 229.717 99.7766 229.482 99.3559C229.247 98.9353 228.935 98.6073 228.544 98.3721C228.164 98.126 227.745 98.0089 227.287 98.0209C226.817 98.0332 226.4 98.1722 226.033 98.4379C225.667 98.7036 225.377 99.0526 225.164 99.485C224.951 99.9067 224.852 100.389 224.866 100.933Z" fill="#2D75B8"/>
<path d="M218.514 105.421C217.81 105.44 217.141 105.345 216.506 105.138C215.871 104.919 215.323 104.587 214.863 104.14L215.488 102.939C215.979 103.353 216.467 103.65 216.952 103.829C217.447 104.009 217.935 104.092 218.415 104.079C218.905 104.066 219.303 103.965 219.607 103.776C219.911 103.576 220.059 103.295 220.049 102.932C220.042 102.666 219.957 102.47 219.794 102.347C219.631 102.223 219.393 102.117 219.081 102.029C218.78 101.941 218.415 101.844 217.985 101.738C217.383 101.572 216.877 101.399 216.467 101.217C216.057 101.025 215.746 100.788 215.536 100.505C215.326 100.223 215.215 99.8576 215.203 99.4097C215.189 98.8659 215.316 98.3984 215.583 98.0073C215.85 97.6162 216.226 97.3129 216.711 97.0975C217.207 96.8817 217.78 96.7654 218.431 96.7483C219.039 96.7324 219.601 96.8137 220.118 96.9923C220.645 97.1598 221.111 97.4357 221.516 97.8199L220.795 99.0072C220.413 98.6758 220.022 98.4353 219.624 98.2856C219.235 98.1357 218.818 98.0667 218.37 98.0784C218.114 98.0851 217.869 98.1235 217.636 98.1936C217.403 98.2531 217.209 98.3649 217.053 98.529C216.908 98.6822 216.839 98.8974 216.846 99.1747C216.852 99.3986 216.92 99.5782 217.052 99.7134C217.184 99.8487 217.379 99.961 217.637 100.05C217.895 100.14 218.213 100.238 218.589 100.345C219.245 100.52 219.804 100.698 220.268 100.878C220.731 101.047 221.089 101.278 221.342 101.57C221.606 101.851 221.744 102.247 221.757 102.759C221.779 103.57 221.491 104.212 220.896 104.687C220.31 105.15 219.516 105.395 218.514 105.421Z" fill="#2D75B8"/>
<path d="M207.516 105.549L201.91 99.9179C201.439 99.4394 201.066 99.033 200.79 98.6988C200.515 98.3645 200.314 98.055 200.19 97.7702C200.065 97.4853 199.998 97.1883 199.99 96.8791C199.977 96.3566 200.092 95.8947 200.338 95.4935C200.594 95.092 200.949 94.7733 201.401 94.5373C201.854 94.3014 202.363 94.176 202.928 94.1613C203.451 94.1476 203.933 94.231 204.375 94.4115C204.817 94.5813 205.176 94.844 205.452 95.1995C205.728 95.5444 205.873 95.9781 205.886 96.5006C205.899 96.9911 205.783 97.437 205.537 97.8382C205.292 98.2394 204.96 98.6109 204.542 98.9526C204.124 99.2944 203.658 99.632 203.144 99.9656C202.746 100.243 202.385 100.519 202.061 100.794C201.738 101.059 201.484 101.343 201.299 101.646C201.126 101.939 201.044 102.267 201.053 102.629C201.063 102.992 201.172 103.314 201.383 103.597C201.592 103.869 201.87 104.08 202.215 104.231C202.561 104.372 202.936 104.437 203.341 104.426C203.842 104.413 204.314 104.283 204.755 104.037C205.197 103.79 205.588 103.449 205.929 103.014C206.269 102.567 206.528 102.048 206.704 101.457C206.892 100.865 206.976 100.223 206.958 99.5296L208.397 99.4919C208.422 100.43 208.295 101.282 208.016 102.047C207.748 102.811 207.371 103.472 206.884 104.029C206.407 104.586 205.848 105.022 205.205 105.337C204.573 105.642 203.9 105.804 203.185 105.823C202.45 105.842 201.795 105.715 201.223 105.442C200.65 105.158 200.197 104.775 199.864 104.293C199.542 103.811 199.373 103.265 199.357 102.658C199.342 102.061 199.461 101.54 199.717 101.096C199.982 100.641 200.324 100.237 200.741 99.8845C201.169 99.5211 201.598 99.1951 202.028 98.9064C202.489 98.5956 202.888 98.3237 203.223 98.0909C203.558 97.8474 203.819 97.6058 204.004 97.3662C204.19 97.1159 204.279 96.8521 204.272 96.5749C204.263 96.2337 204.133 95.965 203.882 95.7688C203.642 95.5617 203.336 95.463 202.962 95.4728C202.685 95.4801 202.441 95.5451 202.231 95.668C202.032 95.7906 201.876 95.9494 201.764 96.1444C201.651 96.3394 201.598 96.5542 201.604 96.7888C201.609 96.9487 201.656 97.1129 201.745 97.2813C201.835 97.439 202 97.6481 202.242 97.9085C202.483 98.1583 202.818 98.5016 203.245 98.9386L209.835 105.488L207.516 105.549Z" fill="#2D75B8"/>
<path d="M190.337 106.159C189.634 106.177 188.964 106.083 188.329 105.875C187.694 105.657 187.146 105.325 186.687 104.878L187.311 103.677C187.802 104.091 188.29 104.388 188.775 104.567C189.271 104.746 189.758 104.83 190.238 104.817C190.729 104.804 191.126 104.703 191.431 104.514C191.735 104.314 191.882 104.032 191.873 103.67C191.866 103.403 191.781 103.208 191.617 103.084C191.454 102.961 191.216 102.855 190.905 102.767C190.604 102.679 190.238 102.582 189.809 102.476C189.207 102.31 188.701 102.136 188.291 101.955C187.88 101.763 187.57 101.526 187.36 101.243C187.149 100.961 187.039 100.595 187.027 100.148C187.013 99.6037 187.139 99.1363 187.406 98.7451C187.673 98.354 188.05 98.0507 188.535 97.8353C189.031 97.6196 189.604 97.5032 190.254 97.4862C190.862 97.4702 191.424 97.5515 191.941 97.7301C192.468 97.8977 192.934 98.1736 193.339 98.5578L192.618 99.745C192.236 99.4136 191.846 99.1731 191.447 99.0235C191.059 98.8736 190.641 98.8045 190.193 98.8162C189.937 98.8229 189.693 98.8613 189.46 98.9314C189.227 98.9909 189.032 99.1027 188.876 99.2668C188.731 99.42 188.662 99.6352 188.669 99.9125C188.675 100.136 188.744 100.316 188.875 100.451C189.007 100.587 189.202 100.699 189.46 100.788C189.719 100.877 190.036 100.976 190.412 101.083C191.068 101.258 191.627 101.436 192.091 101.615C192.554 101.785 192.912 102.015 193.165 102.308C193.429 102.589 193.567 102.985 193.581 103.497C193.602 104.308 193.315 104.95 192.719 105.424C192.134 105.888 191.34 106.133 190.337 106.159Z" fill="#2D75B8"/>
<path d="M181.321 106.395C180.67 106.412 180.076 106.316 179.537 106.106C179.008 105.885 178.547 105.582 178.152 105.198C177.758 104.802 177.447 104.352 177.221 103.846C177.004 103.328 176.889 102.777 176.873 102.19C176.853 101.401 177.015 100.676 177.36 100.017C177.706 99.3459 178.198 98.8049 178.838 98.3933C179.478 97.9711 180.235 97.7485 181.11 97.7256C181.984 97.7027 182.741 97.8856 183.381 98.2744C184.031 98.6521 184.541 99.1616 184.909 99.8029C185.278 100.444 185.473 101.138 185.492 101.884C185.496 102.012 185.493 102.135 185.486 102.253C185.478 102.36 185.47 102.45 185.461 102.525L178.759 102.701C178.804 103.191 178.949 103.619 179.193 103.986C179.448 104.342 179.765 104.622 180.143 104.825C180.522 105.018 180.924 105.109 181.351 105.098C181.82 105.086 182.259 104.957 182.669 104.711C183.09 104.465 183.369 104.149 183.509 103.761L185.023 104.153C184.853 104.563 184.585 104.938 184.221 105.279C183.866 105.608 183.441 105.875 182.945 106.08C182.449 106.275 181.907 106.38 181.321 106.395ZM178.681 101.535L183.735 101.402C183.69 100.923 183.541 100.506 183.286 100.149C183.042 99.7824 182.73 99.5025 182.352 99.3097C181.984 99.1059 181.576 99.0099 181.128 99.0216C180.691 99.033 180.288 99.1503 179.921 99.3733C179.563 99.5854 179.272 99.8811 179.047 100.26C178.822 100.629 178.7 101.054 178.681 101.535Z" fill="#2D75B8"/>
<path d="M172.105 94.7923L173.865 94.7462L174.107 104.007C174.118 104.434 174.19 104.704 174.321 104.818C174.452 104.932 174.613 104.986 174.805 104.981C175.018 104.976 175.215 104.949 175.395 104.902C175.586 104.854 175.75 104.796 175.887 104.729L176.179 106.114C175.926 106.227 175.625 106.325 175.275 106.409C174.925 106.493 174.611 106.539 174.334 106.546C173.737 106.562 173.263 106.409 172.913 106.087C172.563 105.755 172.38 105.29 172.365 104.693L172.105 94.7923Z" fill="#2D75B8"/>
<path d="M162.375 104.282C162.361 103.749 162.498 103.281 162.787 102.879C163.085 102.466 163.498 102.145 164.026 101.918C164.553 101.68 165.169 101.552 165.872 101.534C166.246 101.524 166.625 101.541 167.01 101.584C167.406 101.627 167.755 101.703 168.057 101.813L168.043 101.285C168.027 100.698 167.839 100.245 167.479 99.9232C167.118 99.6018 166.608 99.4498 165.946 99.4671C165.477 99.4794 165.037 99.5763 164.626 99.7578C164.214 99.9287 163.777 100.169 163.316 100.48L162.693 99.3122C163.238 98.9245 163.785 98.6328 164.335 98.437C164.895 98.2409 165.485 98.1348 166.103 98.1186C167.223 98.0893 168.11 98.3648 168.766 98.9452C169.432 99.5146 169.779 100.343 169.807 101.431L169.889 104.55C169.894 104.752 169.93 104.895 169.996 104.979C170.073 105.062 170.197 105.107 170.368 105.113L170.405 106.521C170.245 106.557 170.102 106.582 169.974 106.596C169.847 106.61 169.74 106.618 169.655 106.621C169.282 106.63 168.997 106.547 168.8 106.371C168.603 106.195 168.486 105.984 168.447 105.74L168.387 105.261C168.037 105.74 167.582 106.115 167.024 106.385C166.465 106.656 165.898 106.799 165.323 106.814C164.768 106.829 164.269 106.73 163.826 106.517C163.383 106.294 163.033 105.988 162.778 105.6C162.522 105.212 162.388 104.773 162.375 104.282ZM167.715 104.655C167.839 104.513 167.937 104.371 168.008 104.231C168.079 104.09 168.113 103.967 168.11 103.86L168.085 102.9C167.783 102.791 167.467 102.714 167.135 102.669C166.802 102.614 166.476 102.59 166.156 102.599C165.517 102.615 164.998 102.757 164.599 103.024C164.211 103.29 164.023 103.647 164.035 104.095C164.041 104.34 164.111 104.573 164.245 104.793C164.39 105.014 164.586 105.19 164.835 105.322C165.095 105.454 165.411 105.515 165.784 105.505C166.168 105.495 166.534 105.411 166.882 105.253C167.23 105.094 167.508 104.895 167.715 104.655Z" fill="#2D75B8"/>
<path d="M157.588 107.017C156.937 107.034 156.343 106.937 155.804 106.727C155.275 106.506 154.813 106.198 154.419 105.803C154.024 105.408 153.714 104.952 153.487 104.435C153.27 103.918 153.155 103.366 153.139 102.78C153.119 101.99 153.276 101.266 153.611 100.606C153.956 99.9465 154.444 99.4109 155.073 98.9996C155.713 98.5881 156.476 98.3707 157.361 98.3475C158.214 98.3252 158.96 98.4977 159.599 98.8651C160.249 99.2215 160.731 99.7104 161.046 100.332L159.349 100.92C159.148 100.573 158.869 100.309 158.512 100.126C158.165 99.9323 157.784 99.8409 157.368 99.8518C156.899 99.8641 156.476 99.9979 156.098 100.253C155.731 100.498 155.441 100.836 155.228 101.268C155.026 101.69 154.932 102.178 154.947 102.732C154.961 103.265 155.085 103.748 155.321 104.179C155.556 104.6 155.863 104.933 156.243 105.179C156.633 105.414 157.063 105.526 157.532 105.513C157.82 105.506 158.096 105.451 158.36 105.348C158.635 105.234 158.871 105.089 159.069 104.913C159.267 104.726 159.406 104.525 159.486 104.31L161.226 104.777C161.056 105.197 160.794 105.572 160.439 105.902C160.096 106.231 159.681 106.498 159.196 106.702C158.721 106.896 158.185 107.001 157.588 107.017Z" fill="#2D75B8"/>
<path d="M148.595 107.252C147.892 107.27 147.222 107.176 146.587 106.968C145.952 106.75 145.404 106.418 144.945 105.971L145.569 104.77C146.06 105.184 146.548 105.481 147.033 105.66C147.529 105.839 148.016 105.923 148.496 105.91C148.987 105.897 149.384 105.796 149.689 105.607C149.993 105.407 150.14 105.125 150.131 104.763C150.124 104.496 150.039 104.301 149.875 104.177C149.712 104.054 149.475 103.948 149.163 103.86C148.862 103.772 148.496 103.675 148.067 103.569C147.465 103.403 146.959 103.229 146.549 103.048C146.138 102.856 145.828 102.619 145.618 102.336C145.408 102.054 145.297 101.688 145.285 101.241C145.271 100.697 145.397 100.229 145.664 99.8382C145.931 99.4471 146.308 99.1438 146.793 98.9283C147.289 98.7126 147.862 98.5962 148.512 98.5792C149.12 98.5633 149.682 98.6446 150.199 98.8231C150.727 98.9907 151.193 99.2666 151.597 99.6508L150.876 100.838C150.494 100.507 150.104 100.266 149.705 100.117C149.317 99.9666 148.899 99.8975 148.451 99.9093C148.195 99.916 147.951 99.9544 147.718 100.024C147.485 100.084 147.29 100.196 147.134 100.36C146.989 100.513 146.92 100.728 146.927 101.006C146.933 101.229 147.002 101.409 147.133 101.544C147.265 101.68 147.46 101.792 147.718 101.881C147.977 101.97 148.294 102.069 148.671 102.176C149.326 102.351 149.885 102.529 150.349 102.709C150.812 102.878 151.17 103.109 151.424 103.401C151.687 103.682 151.825 104.078 151.839 104.59C151.86 105.401 151.573 106.043 150.977 106.517C150.392 106.981 149.598 107.226 148.595 107.252Z" fill="#2D75B8"/>
<path d="M136.867 100.597L135.747 100.626L135.712 99.2665L136.831 99.2372L136.822 98.9013C136.811 98.4641 136.869 98.0465 136.998 97.6483C137.126 97.2395 137.324 96.8768 137.593 96.5603C137.862 96.2332 138.192 95.9738 138.581 95.7822C138.982 95.5903 139.449 95.4874 139.982 95.4734C140.376 95.4631 140.745 95.4961 141.089 95.5725C141.443 95.6486 141.766 95.7575 142.058 95.8992C142.36 96.03 142.625 96.1725 142.853 96.3266L142.168 97.657C141.927 97.4499 141.624 97.2817 141.258 97.1526C140.892 97.0235 140.517 96.9639 140.133 96.974C139.771 96.9835 139.469 97.0768 139.228 97.2538C138.998 97.4305 138.828 97.6591 138.718 97.9394C138.618 98.2194 138.573 98.5087 138.581 98.8073L138.591 99.1911L142.973 99.0764L143.187 107.234L141.427 107.28L141.249 100.482L138.626 100.551L138.804 107.348L137.045 107.394L136.867 100.597Z" fill="#2D75B8"/>
<path d="M127.096 107.815C126.392 107.833 125.723 107.739 125.088 107.531C124.453 107.313 123.905 106.981 123.445 106.534L124.07 105.333C124.561 105.747 125.049 106.044 125.534 106.223C126.029 106.402 126.517 106.486 126.997 106.473C127.487 106.46 127.885 106.359 128.189 106.17C128.493 105.97 128.641 105.688 128.631 105.326C128.624 105.059 128.539 104.864 128.376 104.74C128.213 104.617 127.975 104.511 127.663 104.423C127.362 104.335 126.997 104.238 126.567 104.132C125.965 103.966 125.459 103.792 125.049 103.611C124.639 103.419 124.328 103.182 124.118 102.899C123.908 102.617 123.797 102.251 123.785 101.804C123.771 101.26 123.898 100.792 124.165 100.401C124.432 100.01 124.808 99.7068 125.293 99.4913C125.789 99.2756 126.362 99.1592 127.013 99.1422C127.621 99.1263 128.183 99.2076 128.7 99.3861C129.227 99.5537 129.693 99.8296 130.098 100.214L129.377 101.401C128.995 101.07 128.604 100.829 128.205 100.679C127.817 100.53 127.399 100.461 126.952 100.472C126.696 100.479 126.451 100.517 126.218 100.587C125.985 100.647 125.791 100.759 125.635 100.923C125.49 101.076 125.421 101.291 125.428 101.569C125.434 101.792 125.502 101.972 125.634 102.107C125.766 102.243 125.961 102.355 126.219 102.444C126.477 102.533 126.795 102.632 127.171 102.739C127.827 102.914 128.386 103.092 128.85 103.272C129.313 103.441 129.671 103.671 129.924 103.964C130.187 104.245 130.326 104.641 130.339 105.153C130.361 105.964 130.073 106.606 129.477 107.08C128.892 107.544 128.098 107.789 127.096 107.815Z" fill="#2D75B8"/>
<path d="M118.079 108.051C117.429 108.068 116.834 107.972 116.295 107.762C115.767 107.541 115.305 107.238 114.911 106.854C114.516 106.458 114.206 106.008 113.979 105.502C113.763 104.984 113.647 104.433 113.632 103.846C113.611 103.057 113.774 102.333 114.119 101.673C114.464 101.002 114.957 100.461 115.597 100.049C116.237 99.6271 116.994 99.4045 117.868 99.3817C118.743 99.3588 119.5 99.5417 120.139 99.9304C120.79 100.308 121.299 100.818 121.668 101.459C122.037 102.1 122.231 102.794 122.251 103.54C122.254 103.668 122.252 103.791 122.244 103.909C122.236 104.016 122.228 104.106 122.219 104.181L115.518 104.357C115.563 104.847 115.707 105.275 115.952 105.642C116.206 105.998 116.523 106.278 116.902 106.481C117.28 106.674 117.683 106.765 118.109 106.754C118.579 106.742 119.018 106.613 119.428 106.367C119.848 106.121 120.128 105.805 120.267 105.417L121.782 105.809C121.611 106.219 121.344 106.594 120.979 106.935C120.625 107.264 120.2 107.531 119.704 107.736C119.207 107.931 118.666 108.036 118.079 108.051ZM115.439 103.191L120.493 103.058C120.449 102.579 120.299 102.162 120.045 101.806C119.8 101.438 119.489 101.159 119.11 100.966C118.742 100.762 118.334 100.666 117.886 100.678C117.449 100.689 117.047 100.806 116.679 101.029C116.322 101.241 116.031 101.537 115.806 101.917C115.581 102.285 115.459 102.71 115.439 103.191Z" fill="#2D75B8"/>
<path d="M108.903 108.291C108.253 108.308 107.658 108.212 107.119 108.002C106.59 107.781 106.129 107.473 105.734 107.078C105.34 106.683 105.029 106.227 104.802 105.71C104.586 105.193 104.47 104.641 104.455 104.054C104.434 103.265 104.591 102.541 104.926 101.881C105.271 101.221 105.759 100.686 106.388 100.274C107.029 99.8629 107.791 99.6455 108.676 99.6224C109.529 99.6 110.275 99.7725 110.914 100.14C111.564 100.496 112.046 100.985 112.361 101.607L110.664 102.195C110.463 101.848 110.184 101.584 109.827 101.401C109.481 101.207 109.099 101.116 108.684 101.127C108.214 101.139 107.791 101.273 107.414 101.528C107.047 101.772 106.757 102.111 106.544 102.543C106.341 102.965 106.248 103.453 106.262 104.007C106.276 104.54 106.401 105.022 106.636 105.454C106.871 105.874 107.179 106.208 107.559 106.454C107.949 106.689 108.379 106.801 108.848 106.788C109.136 106.781 109.412 106.726 109.676 106.623C109.95 106.509 110.186 106.364 110.385 106.188C110.582 106.001 110.721 105.8 110.801 105.585L112.542 106.051C112.371 106.472 112.109 106.847 111.755 107.176C111.411 107.505 110.997 107.772 110.511 107.977C110.036 108.171 109.5 108.276 108.903 108.291Z" fill="#2D75B8"/>
<path d="M102.746 108.293L100.987 108.339L100.864 103.652C100.844 102.874 100.701 102.307 100.435 101.951C100.181 101.595 99.808 101.423 99.3175 101.436C98.9763 101.445 98.6373 101.539 98.3006 101.719C97.9745 101.898 97.6821 102.14 97.4233 102.446C97.1643 102.741 96.9811 103.082 96.8739 103.469L97.0042 108.443L95.2448 108.489L95.0257 100.124L96.6252 100.082L96.6691 101.761C96.8726 101.383 97.1415 101.055 97.4757 100.78C97.8203 100.493 98.2093 100.27 98.6426 100.109C99.0758 99.9484 99.5377 99.8617 100.028 99.8488C100.529 99.8357 100.942 99.9156 101.267 100.088C101.602 100.261 101.865 100.505 102.054 100.82C102.254 101.124 102.392 101.483 102.467 101.898C102.552 102.301 102.601 102.732 102.613 103.19L102.746 108.293Z" fill="#2D75B8"/>
<path d="M85.2248 106.303C85.2109 105.769 85.348 105.302 85.6362 104.899C85.9349 104.486 86.348 104.166 86.8755 103.939C87.4028 103.701 88.0183 103.572 88.7221 103.554C89.0953 103.544 89.4745 103.561 89.8598 103.604C90.2557 103.647 90.6045 103.723 90.9061 103.833L90.8923 103.305C90.877 102.719 90.689 102.265 90.3285 101.943C89.9679 101.622 89.4571 101.47 88.796 101.487C88.3268 101.5 87.8866 101.597 87.4752 101.778C87.0635 101.949 86.627 102.19 86.1656 102.501L85.5428 101.332C86.0875 100.945 86.6348 100.653 87.1845 100.457C87.7449 100.261 88.3343 100.155 88.9528 100.139C90.0724 100.11 90.9599 100.385 91.6153 100.965C92.2811 101.535 92.6283 102.363 92.6567 103.451L92.7384 106.57C92.7437 106.773 92.7795 106.916 92.8457 106.999C92.9226 107.083 93.0464 107.127 93.2173 107.134L93.2542 108.541C93.0951 108.577 92.9517 108.602 92.824 108.616C92.6963 108.63 92.5898 108.639 92.5045 108.641C92.1313 108.651 91.8464 108.567 91.6497 108.391C91.453 108.215 91.3355 108.004 91.2971 107.76L91.2365 107.281C90.8863 107.76 90.4319 108.135 89.8735 108.406C89.315 108.676 88.7479 108.819 88.1721 108.834C87.6176 108.849 87.1189 108.75 86.6758 108.537C86.2325 108.314 85.8831 108.009 85.6275 107.62C85.3719 107.232 85.2377 106.793 85.2248 106.303ZM90.5644 106.675C90.6887 106.533 90.7864 106.392 90.8574 106.251C90.9284 106.11 90.9625 105.987 90.9597 105.88L90.9346 104.921C90.633 104.811 90.3162 104.734 89.9842 104.689C89.652 104.634 89.326 104.611 89.0061 104.619C88.3663 104.636 87.8471 104.777 87.4486 105.044C87.0608 105.31 86.8728 105.667 86.8845 106.115C86.8909 106.36 86.961 106.593 87.0949 106.814C87.2393 107.034 87.436 107.21 87.6849 107.342C87.9444 107.474 88.2608 107.535 88.634 107.526C89.0179 107.516 89.3838 107.431 89.7318 107.273C90.0798 107.114 90.3573 106.915 90.5644 106.675Z" fill="#2D75B8"/>
<path d="M79.8593 109.052C79.2089 109.069 78.6141 108.972 78.0751 108.763C77.5465 108.542 77.0851 108.239 76.6909 107.854C76.2964 107.459 75.9858 107.009 75.7592 106.502C75.5429 105.985 75.4271 105.433 75.4117 104.847C75.3911 104.058 75.5535 103.333 75.899 102.673C76.2442 102.003 76.7369 101.462 77.377 101.05C78.0168 100.628 78.7739 100.405 79.6483 100.382C80.5227 100.36 81.2797 100.542 81.9195 100.931C82.5696 101.309 83.0791 101.818 83.448 102.46C83.8169 103.101 84.0111 103.795 84.0307 104.541C84.034 104.669 84.0319 104.792 84.0243 104.909C84.0164 105.016 84.0082 105.107 83.9994 105.182L77.2977 105.358C77.3426 105.847 77.4872 106.276 77.7315 106.643C77.9863 106.999 78.303 107.279 78.6818 107.482C79.0603 107.675 79.4629 107.766 79.8894 107.755C80.3585 107.742 80.798 107.614 81.2077 107.368C81.6281 107.122 81.9079 106.806 82.0471 106.418L83.5619 106.81C83.3913 107.22 83.1236 107.595 82.7591 107.936C82.4049 108.265 81.9798 108.532 81.4836 108.737C80.9872 108.932 80.4458 109.037 79.8593 109.052ZM77.2192 104.191L82.2734 104.059C82.2289 103.58 82.0792 103.162 81.8245 102.806C81.5801 102.439 81.2687 102.159 80.8902 101.967C80.5221 101.763 80.1141 101.667 79.6662 101.678C79.2291 101.69 78.8267 101.807 78.459 102.03C78.1018 102.242 77.8108 102.538 77.586 102.917C77.3609 103.286 77.2386 103.711 77.2192 104.191ZM80.1645 99.3126L79.0037 98.9909L79.8693 97.2076L81.5487 97.1636L80.1645 99.3126Z" fill="#2D75B8"/>
<path d="M73.7024 109.053L71.943 109.099L71.8203 104.413C71.8004 103.656 71.647 103.094 71.36 102.728C71.073 102.362 70.6789 102.186 70.1778 102.199C69.8685 102.207 69.5509 102.301 69.2248 102.48C68.8987 102.659 68.6116 102.902 68.3635 103.207C68.1151 103.501 67.9373 103.842 67.8301 104.229L67.9603 109.203L66.2009 109.25L65.8952 97.5735L67.6546 97.5275L67.7853 102.518C68.0904 101.944 68.516 101.49 69.0621 101.156C69.6079 100.811 70.2007 100.63 70.8405 100.613C71.363 100.599 71.7972 100.679 72.1431 100.851C72.4891 101.023 72.7622 101.267 72.9626 101.582C73.1732 101.886 73.3214 102.245 73.4069 102.659C73.5028 103.062 73.5568 103.492 73.5688 103.951L73.7024 109.053Z" fill="#2D75B8"/>
<path d="M60.7415 109.553C60.0911 109.57 59.4963 109.473 58.9573 109.263C58.4287 109.042 57.9671 108.734 57.5727 108.339C57.1782 107.944 56.8675 107.488 56.6405 106.971C56.4243 106.454 56.3084 105.902 56.2931 105.316C56.2724 104.526 56.4295 103.802 56.7644 103.142C57.1099 102.483 57.5973 101.947 58.2268 101.536C58.8669 101.124 59.6295 100.907 60.5145 100.884C61.3675 100.861 62.1137 101.034 62.7528 101.401C63.4024 101.758 63.8847 102.246 64.1997 102.868L62.5025 103.456C62.3014 103.109 62.0224 102.845 61.6655 102.662C61.3189 102.468 60.9377 102.377 60.5219 102.388C60.0527 102.4 59.6294 102.534 59.252 102.789C58.8849 103.034 58.595 103.372 58.3822 103.804C58.1799 104.226 58.0859 104.714 58.1005 105.268C58.1144 105.801 58.2391 106.284 58.4745 106.715C58.7095 107.136 59.017 107.469 59.397 107.715C59.7872 107.95 60.217 108.062 60.6862 108.049C60.9741 108.042 61.25 107.987 61.5141 107.884C61.7885 107.77 62.0248 107.625 62.223 107.449C62.4208 107.262 62.5596 107.061 62.6393 106.846L64.3801 107.313C64.2097 107.733 63.9475 108.108 63.5933 108.438C63.2498 108.767 62.8353 109.034 62.3498 109.238C61.8748 109.432 61.3386 109.537 60.7415 109.553Z" fill="#2D75B8"/>
<path d="M50.9093 109.81C50.2588 109.827 49.6641 109.731 49.1251 109.521C48.5964 109.3 48.135 108.997 47.7408 108.613C47.3463 108.217 47.0358 107.767 46.8091 107.26C46.5928 106.743 46.477 106.191 46.4617 105.605C46.441 104.816 46.6034 104.091 46.9489 103.431C47.2942 102.761 47.7868 102.22 48.4269 101.808C49.0668 101.386 49.8239 101.163 50.6982 101.141C51.5726 101.118 52.3297 101.301 52.9694 101.689C53.6195 102.067 54.129 102.577 54.4979 103.218C54.8668 103.859 55.0611 104.553 55.0806 105.299C55.084 105.427 55.0818 105.55 55.0742 105.668C55.0664 105.774 55.0581 105.865 55.0494 105.94L48.3477 106.116C48.3925 106.605 48.5371 107.034 48.7815 107.401C49.0362 107.757 49.353 108.037 49.7318 108.24C50.1103 108.433 50.5128 108.524 50.9393 108.513C51.4085 108.5 51.8479 108.372 52.2576 108.126C52.678 107.88 52.9578 107.564 53.097 107.176L54.6118 107.568C54.4412 107.978 54.1736 108.353 53.809 108.694C53.4549 109.023 53.0297 109.29 52.5336 109.495C52.0372 109.69 51.4957 109.795 50.9093 109.81ZM48.2691 104.949L53.3234 104.817C53.2788 104.338 53.1292 103.921 52.8744 103.564C52.6301 103.197 52.3186 102.917 51.9401 102.725C51.572 102.521 51.164 102.425 50.7162 102.437C50.279 102.448 49.8766 102.565 49.509 102.788C49.1517 103 48.8607 103.296 48.6359 103.675C48.4108 104.044 48.2885 104.469 48.2691 104.949ZM51.2144 100.071L50.0536 99.749L50.9192 97.9657L52.5986 97.9217L51.2144 100.071Z" fill="#2D75B8"/>
<path d="M44.4365 102.009L44.7229 100.113L44.1791 100.127L44.1272 98.1435L45.8386 98.0987L45.8909 100.098L45.4281 101.983L44.4365 102.009Z" fill="#2D75B8"/>
<path d="M34.0446 105.914C34.0237 105.114 34.1647 104.385 34.4675 103.726C34.7808 103.057 35.2149 102.522 35.77 102.124C36.3248 101.714 36.9701 101.5 37.7058 101.481C38.3456 101.464 38.9258 101.614 39.4462 101.931C39.9774 102.248 40.3933 102.648 40.6941 103.131L40.5659 98.2368L42.3253 98.1907L42.5791 107.883C42.5844 108.086 42.6255 108.229 42.7024 108.312C42.7793 108.396 42.9031 108.44 43.074 108.447L43.1109 109.854C42.7817 109.916 42.5265 109.949 42.3452 109.954C42.0147 109.963 41.7296 109.874 41.49 109.689C41.261 109.502 41.1377 109.276 41.1201 109.01L41.0878 108.387C40.7818 108.928 40.3609 109.355 39.8249 109.668C39.2886 109.97 38.7272 110.129 38.1408 110.144C37.565 110.159 37.0289 110.061 36.5325 109.85C36.0468 109.639 35.6174 109.335 35.2443 108.94C34.8818 108.544 34.5924 108.087 34.3761 107.57C34.1705 107.053 34.06 106.501 34.0446 105.914ZM40.7929 106.906L40.7355 104.715C40.6093 104.376 40.4094 104.078 40.1359 103.818C39.8727 103.547 39.5737 103.337 39.239 103.185C38.9149 103.034 38.5929 102.962 38.273 102.97C37.8998 102.98 37.5607 103.069 37.2557 103.237C36.9613 103.405 36.7056 103.625 36.4887 103.897C36.2824 104.17 36.1251 104.478 36.0167 104.822C35.9084 105.166 35.8591 105.525 35.8688 105.898C35.8789 106.282 35.9524 106.643 36.0893 106.981C36.2259 107.308 36.415 107.602 36.6565 107.862C36.9085 108.112 37.191 108.307 37.5042 108.448C37.8277 108.579 38.176 108.639 38.5493 108.629C38.7838 108.623 39.0173 108.574 39.2497 108.483C39.4927 108.391 39.7189 108.268 39.9282 108.113C40.1482 107.958 40.3302 107.777 40.4742 107.57C40.6288 107.364 40.7351 107.142 40.7929 106.906Z" fill="#2D75B8"/>
<path d="M264.897 61.9849V68.5999H255.627V73.5949H264.402V80.2099H255.627V85.3849H264.897V91.9999H247.842V61.9849H264.897Z" fill="#231F20"/>
<path d="M219.629 61.9849H231.779C234.959 61.9849 237.404 62.8699 239.114 64.6399C240.824 66.3799 241.679 68.6299 241.679 71.3899C241.679 74.0299 240.884 76.1149 239.294 77.6449C238.184 78.6949 236.804 79.3849 235.154 79.7149L244.559 91.9999H234.884L227.414 80.4799V91.9999H219.629V61.9849ZM227.414 68.0149V75.4399H228.899C230.579 75.4399 231.839 75.0349 232.679 74.2249C233.339 73.5649 233.669 72.7249 233.669 71.7049C233.669 70.6549 233.324 69.8149 232.634 69.1849C231.854 68.4049 230.609 68.0149 228.899 68.0149H227.414Z" fill="#231F20"/>
<path d="M187.198 61.9849H194.983V79.7599C194.983 81.8599 195.493 83.4049 196.513 84.3949C197.533 85.3549 198.763 85.8349 200.203 85.8349C201.643 85.8349 202.843 85.3999 203.803 84.5299C204.343 84.0499 204.748 83.4499 205.018 82.7299C205.318 81.9799 205.483 81.3949 205.513 80.9749C205.543 80.5249 205.558 79.8949 205.558 79.0849V61.9849H213.343V79.2199C213.343 80.5399 213.298 81.6349 213.208 82.5049C213.118 83.3449 212.803 84.3799 212.263 85.6099C211.753 86.8099 210.988 87.9199 209.968 88.9399C207.508 91.4299 204.208 92.6749 200.068 92.6749C195.688 92.6749 192.373 91.4749 190.123 89.0749C188.173 86.9449 187.198 83.6599 187.198 79.2199V61.9849Z" fill="#231F20"/>
<path d="M160.14 89.2999L163.47 82.9999C165.63 85.0399 167.925 86.0599 170.355 86.0599C171.735 86.0599 172.74 85.7149 173.37 85.0249C173.88 84.5149 174.135 83.8849 174.135 83.1349C174.135 82.4149 173.85 81.8149 173.28 81.3349C172.8 80.9149 171.51 80.3899 169.41 79.7599L167.385 79.1299C165.375 78.4999 163.935 77.6899 163.065 76.6999C161.925 75.4699 161.355 73.6999 161.355 71.3899C161.355 68.3899 162.27 65.9749 164.1 64.1449C165.99 62.2549 168.555 61.3099 171.795 61.3099C174.885 61.3099 177.975 62.1199 181.065 63.7399L177.96 69.8149C176.25 68.4649 174.54 67.7899 172.83 67.7899C171.75 67.7899 170.895 68.0899 170.265 68.6899C169.755 69.1999 169.5 69.7399 169.5 70.3099C169.5 70.8499 169.635 71.2999 169.905 71.6599C170.325 72.1699 171.195 72.6199 172.515 73.0099L174.9 73.7299C177.42 74.5099 179.235 75.4999 180.345 76.6999C181.635 78.0799 182.28 79.8649 182.28 82.0549C182.28 85.2049 181.335 87.7249 179.445 89.6149C177.405 91.6549 174.45 92.6749 170.58 92.6749C168.45 92.6749 166.485 92.3449 164.685 91.6849C163.155 91.1449 161.64 90.3499 160.14 89.2999Z" fill="#231F20"/>
<path d="M156.528 61.9849V68.5999H147.258V73.5949H156.033V80.2099H147.258V85.3849H156.528V91.9999H139.473V61.9849H156.528Z" fill="#231F20"/>
<path d="M104.686 91.9999H96.9465L102.031 61.9849H109.726L115.801 78.0049L122.236 61.9849H130.021L134.521 91.9999H126.736L124.531 74.7199L117.286 91.9999H114.181L107.251 74.7199L104.686 91.9999Z" fill="#231F20"/>
<path d="M59.5807 61.9849H71.7307C74.9107 61.9849 77.3557 62.8699 79.0657 64.6399C80.7757 66.3799 81.6307 68.6299 81.6307 71.3899C81.6307 74.0299 80.8357 76.1149 79.2457 77.6449C78.1357 78.6949 76.7557 79.3849 75.1057 79.7149L84.5107 91.9999H74.8357L67.3657 80.4799V91.9999H59.5807V61.9849ZM67.3657 68.0149V75.4399H68.8507C70.5307 75.4399 71.7907 75.0349 72.6307 74.2249C73.2907 73.5649 73.6207 72.7249 73.6207 71.7049C73.6207 70.6549 73.2757 69.8149 72.5857 69.1849C71.8057 68.4049 70.5607 68.0149 68.8507 68.0149H67.3657Z" fill="#231F20"/>
<path d="M27.149 61.9849H34.934V79.7599C34.934 81.8599 35.444 83.4049 36.464 84.3949C37.484 85.3549 38.714 85.8349 40.154 85.8349C41.594 85.8349 42.794 85.3999 43.754 84.5299C44.294 84.0499 44.699 83.4499 44.969 82.7299C45.269 81.9799 45.434 81.3949 45.464 80.9749C45.494 80.5249 45.509 79.8949 45.509 79.0849V61.9849H53.294V79.2199C53.294 80.5399 53.249 81.6349 53.159 82.5049C53.069 83.3449 52.754 84.3799 52.214 85.6099C51.704 86.8099 50.939 87.9199 49.919 88.9399C47.459 91.4299 44.159 92.6749 40.019 92.6749C35.639 92.6749 32.324 91.4749 30.074 89.0749C28.124 86.9449 27.149 83.6599 27.149 79.2199V61.9849Z" fill="#231F20"/>
<path d="M0.0910034 89.2999L3.421 82.9999C5.581 85.0399 7.876 86.0599 10.306 86.0599C11.686 86.0599 12.691 85.7149 13.321 85.0249C13.831 84.5149 14.086 83.8849 14.086 83.1349C14.086 82.4149 13.801 81.8149 13.231 81.3349C12.751 80.9149 11.461 80.3899 9.361 79.7599L7.336 79.1299C5.326 78.4999 3.886 77.6899 3.016 76.6999C1.876 75.4699 1.306 73.6999 1.306 71.3899C1.306 68.3899 2.221 65.9749 4.051 64.1449C5.941 62.2549 8.506 61.3099 11.746 61.3099C14.836 61.3099 17.926 62.1199 21.016 63.7399L17.911 69.8149C16.201 68.4649 14.491 67.7899 12.781 67.7899C11.701 67.7899 10.846 68.0899 10.216 68.6899C9.706 69.1999 9.451 69.7399 9.451 70.3099C9.451 70.8499 9.586 71.2999 9.856 71.6599C10.276 72.1699 11.146 72.6199 12.466 73.0099L14.851 73.7299C17.371 74.5099 19.186 75.4999 20.296 76.6999C21.586 78.0799 22.231 79.8649 22.231 82.0549C22.231 85.2049 21.286 87.7249 19.396 89.6149C17.356 91.6549 14.401 92.6749 10.531 92.6749C8.401 92.6749 6.436 92.3449 4.636 91.6849C3.106 91.1449 1.591 90.3499 0.0910034 89.2999Z" fill="#231F20"/>
<path d="M238.262 25.9849H250.412C253.592 25.9849 256.037 26.8699 257.747 28.6399C259.457 30.3799 260.312 32.6299 260.312 35.3899C260.312 38.0299 259.517 40.1149 257.927 41.6449C256.817 42.6949 255.437 43.3849 253.787 43.7149L263.192 55.9999H253.517L246.047 44.4799V55.9999H238.262V25.9849ZM246.047 32.0149V39.4399H247.532C249.212 39.4399 250.472 39.0349 251.312 38.2249C251.972 37.5649 252.302 36.7249 252.302 35.7049C252.302 34.6549 251.957 33.8149 251.267 33.1849C250.487 32.4049 249.242 32.0149 247.532 32.0149H246.047Z" fill="#231F20"/>
<path d="M233.301 25.9849V32.5999H224.031V37.5949H232.806V44.2099H224.031V49.3849H233.301V55.9999H216.246V25.9849H233.301Z" fill="#231F20"/>
<path d="M202.139 25.9849H209.924V55.9999H202.139V25.9849Z" fill="#231F20"/>
<path d="M173.926 25.9849H186.076C189.256 25.9849 191.701 26.8699 193.411 28.6399C195.121 30.3799 195.976 32.6299 195.976 35.3899C195.976 38.0299 195.181 40.1149 193.591 41.6449C192.481 42.6949 191.101 43.3849 189.451 43.7149L198.856 55.9999H189.181L181.711 44.4799V55.9999H173.926V25.9849ZM181.711 32.0149V39.4399H183.196C184.876 39.4399 186.136 39.0349 186.976 38.2249C187.636 37.5649 187.966 36.7249 187.966 35.7049C187.966 34.6549 187.621 33.8149 186.931 33.1849C186.151 32.4049 184.906 32.0149 183.196 32.0149H181.711Z" fill="#231F20"/>
<path d="M153.527 55.9999H142.637V25.9849H152.852C157.952 25.9849 161.927 27.3649 164.777 30.1249C167.567 32.7949 168.962 36.4399 168.962 41.0599C168.962 45.3799 167.657 48.8449 165.047 51.4549C163.727 52.7749 162.077 53.8699 160.097 54.7399C158.117 55.5799 155.927 55.9999 153.527 55.9999ZM150.422 32.5999V49.3849H151.997C154.907 49.3849 157.097 48.6649 158.567 47.2249C160.097 45.7549 160.862 43.6999 160.862 41.0599C160.862 38.1499 160.082 35.9599 158.522 34.4899C157.172 33.2299 155.102 32.5999 152.312 32.5999H150.422Z" fill="#231F20"/>
<path d="M114.211 55.9999H106.426V25.9849H114.211L128.566 44.3449V25.9849H136.351V55.9999H128.566L114.211 37.6399V55.9999Z" fill="#231F20"/>
<path d="M101.465 25.9849V32.5999H92.1948V37.5949H100.97V44.2099H92.1948V49.3849H101.465V55.9999H84.4098V25.9849H101.465Z" fill="#231F20"/>
<path d="M63.2721 25.9849H71.0571V49.3849H80.4171V55.9999H63.2721V25.9849Z" fill="#231F20"/>
<path d="M51.4838 55.9999L49.6388 50.9599H38.7488L36.7238 55.9999H28.4888L40.0088 25.9849H48.5138L59.8088 55.9999H51.4838ZM40.9088 45.0199H47.5688L44.1938 35.2999L40.9088 45.0199Z" fill="#231F20"/>
<path d="M26.3798 45.9649V55.1899C23.6498 56.1799 21.3998 56.6749 19.6298 56.6749C14.9498 56.6749 11.0798 55.1749 8.01979 52.1749C6.57979 50.7349 5.45479 49.0549 4.64479 47.1349C3.86479 45.1849 3.47479 43.2199 3.47479 41.2399C3.47479 39.1699 3.87979 37.1599 4.68979 35.2099C5.52979 33.2599 6.63979 31.5799 8.01979 30.1699C11.0798 27.0499 14.8598 25.4899 19.3598 25.4899C21.5198 25.4899 23.8598 25.9999 26.3798 27.0199V36.3349C24.6098 34.1449 22.3448 33.0499 19.5848 33.0499C17.4548 33.0499 15.6548 33.7099 14.1848 35.0299C12.4448 36.6499 11.5748 38.7049 11.5748 41.1949C11.5748 43.5649 12.3848 45.5149 14.0048 47.0449C15.4748 48.4249 17.3348 49.1149 19.5848 49.1149C22.1948 49.1149 24.4598 48.0649 26.3798 45.9649Z" fill="#231F20"/>
<rect x="262.746" width="38" height="40" rx="10" transform="rotate(14.9435 262.746 0)" fill="#FEF5DC"/>
<path d="M274.042 27.2856L278.296 24.8242C278.54 24.6826 278.8 24.6483 279.073 24.7213C279.347 24.7944 279.555 24.9533 279.696 25.1981C279.838 25.4429 279.872 25.7022 279.799 25.976C279.726 26.2497 279.567 26.4574 279.323 26.5991L274.151 29.5917C273.906 29.7334 273.655 29.7698 273.397 29.7011C273.14 29.6323 272.94 29.4755 272.798 29.2307L271.293 26.6296C271.151 26.3848 271.117 26.1255 271.19 25.8518C271.263 25.578 271.422 25.3703 271.667 25.2287C271.912 25.087 272.171 25.0527 272.445 25.1258C272.719 25.1988 272.926 25.3578 273.068 25.6026L274.042 27.2856ZM266.604 32.0798C266.073 31.938 265.668 31.6274 265.391 31.1479C265.113 30.6685 265.046 30.1631 265.188 29.6317L268.798 16.1052C268.939 15.5738 269.25 15.1694 269.73 14.892C270.209 14.6145 270.714 14.5467 271.246 14.6886L272.212 14.9464L272.47 13.9802C272.543 13.7065 272.697 13.5017 272.931 13.366C273.166 13.2302 273.42 13.1989 273.694 13.2719C273.968 13.345 274.172 13.4988 274.308 13.7334C274.444 13.968 274.475 14.2222 274.402 14.496L274.144 15.4622L281.874 17.5251L282.132 16.5589C282.205 16.2851 282.358 16.0804 282.593 15.9446C282.828 15.8089 283.082 15.7775 283.356 15.8506C283.629 15.9236 283.834 16.0775 283.97 16.3121C284.106 16.5467 284.137 16.8009 284.064 17.0746L283.806 18.0408L284.772 18.2987C285.304 18.4405 285.708 18.7511 285.985 19.2305C286.263 19.71 286.331 20.2154 286.189 20.7468L282.579 34.2733C282.437 34.8047 282.126 35.2091 281.647 35.4865C281.167 35.764 280.662 35.8318 280.131 35.6899L266.604 32.0798ZM267.12 30.1474L280.646 33.7576L283.225 24.0958L269.699 20.4856L267.12 30.1474ZM270.214 18.5533L283.741 22.1634L284.257 20.231L270.73 16.6209L270.214 18.5533Z" fill="#FED17B"/>
</svg>
