<svg width="238" height="100" viewBox="0 0 238 100" fill="none" xmlns="http://www.w3.org/2000/svg">
<path d="M220.679 65.1046L27.9787 73.5181C23.64 73.7075 20.2764 77.3783 20.4658 81.717L20.9211 92.144C21.1105 96.4827 24.7813 99.8464 29.12 99.6569L221.821 91.2434C226.159 91.054 229.523 87.3832 229.333 83.0445L228.878 72.6175C228.689 68.2788 225.018 64.9151 220.679 65.1046Z" fill="#DFF3FC"/>
<path d="M29.1781 85.9287C29.1616 85.2997 29.2725 84.7264 29.5106 84.2082C29.7569 83.6822 30.0983 83.2615 30.5348 82.9485C30.971 82.6261 31.4785 82.4578 32.0571 82.4429C32.5601 82.4295 33.0163 82.5475 33.4256 82.7967C33.8432 83.046 34.1703 83.3605 34.4068 83.7403L34.306 79.892L35.6895 79.8558L35.889 87.477C35.8932 87.6367 35.9255 87.7491 35.986 87.8144C36.0465 87.8804 36.1439 87.915 36.2782 87.9205L36.3072 89.0269C36.0484 89.0757 35.8477 89.1024 35.7052 89.1055C35.4452 89.1126 35.2211 89.0426 35.0326 88.8972C34.8527 88.7501 34.7557 88.5724 34.7418 88.3632L34.7164 87.8733C34.4758 88.2987 34.1448 88.6345 33.7233 88.8806C33.3016 89.1181 32.8602 89.2431 32.399 89.2549C31.9463 89.2667 31.5247 89.1897 31.1345 89.0238C30.7525 88.8578 30.4148 88.6188 30.1214 88.3082C29.8364 87.9968 29.6088 87.6374 29.4387 87.2309C29.277 86.8244 29.1902 86.3903 29.1781 85.9287ZM34.4845 86.7088L34.4394 84.9859C34.3401 84.7193 34.1829 84.485 33.9679 84.2806C33.7609 84.0675 33.5258 83.9023 33.2626 83.7828C33.0077 83.6641 32.7545 83.6075 32.5031 83.6137C32.2095 83.6216 31.9429 83.6916 31.7031 83.8237C31.4716 83.9558 31.2706 84.1288 31.0999 84.3427C30.9377 84.5574 30.814 84.7995 30.7289 85.07C30.6436 85.3405 30.6049 85.6228 30.6126 85.9161C30.6204 86.2181 30.6782 86.502 30.7859 86.7677C30.8933 87.0249 31.042 87.2561 31.232 87.4605C31.43 87.6571 31.6523 87.8104 31.8985 87.9213C32.1528 88.0243 32.4268 88.0715 32.7203 88.0636C32.9047 88.0589 33.0883 88.0204 33.271 87.9488C33.4621 87.8765 33.64 87.7798 33.8045 87.6579C33.9775 87.536 34.1206 87.3937 34.2339 87.2309C34.3555 87.0689 34.439 86.8943 34.4845 86.7088ZM37.3496 82.8581L37.5749 81.3672L37.1472 81.3782L37.1064 79.8189L38.4521 79.7835L38.4933 81.3554L38.1294 82.8376L37.3496 82.8581ZM42.4394 88.9923C41.928 89.0057 41.4603 88.9302 41.0364 88.7651C40.6208 88.5913 40.2579 88.353 39.948 88.0511C39.6378 87.7397 39.3935 87.3858 39.2153 86.9871C39.0453 86.5806 38.9542 86.1465 38.9421 85.6857C38.9258 85.0653 39.0536 84.4952 39.3253 83.977C39.5967 83.4494 39.9841 83.024 40.4875 82.7C40.9906 82.3682 41.5859 82.1928 42.2735 82.1755C42.9611 82.1574 43.5563 82.3013 44.0593 82.6064C44.5705 82.9037 44.9713 83.3047 45.2613 83.8088C45.5514 84.3128 45.7041 84.8585 45.7195 85.4451C45.7221 85.5458 45.7205 85.6425 45.7145 85.7353C45.7083 85.8186 45.7018 85.8902 45.6949 85.9492L40.4251 86.0876C40.4603 86.4721 40.5741 86.8094 40.7662 87.098C40.9665 87.3779 41.2156 87.5981 41.5135 87.7577C41.8111 87.9095 42.1276 87.9811 42.463 87.9724C42.8319 87.963 43.1775 87.8615 43.4997 87.6681C43.8303 87.4747 44.0503 87.2262 44.1598 86.9211L45.3509 87.2293C45.2167 87.5517 45.0062 87.8466 44.7196 88.1147C44.4411 88.3735 44.1068 88.5834 43.7167 88.7446C43.3263 88.8979 42.9006 88.9805 42.4394 88.9923ZM40.3634 85.1699L44.3377 85.0661C44.3027 84.6895 44.185 84.3616 43.9847 84.0808C43.7925 83.7922 43.5477 83.5721 43.25 83.4211C42.9605 83.2607 42.6398 83.1852 42.2876 83.1946C41.9438 83.2033 41.6274 83.2953 41.3383 83.4706C41.0574 83.6373 40.8285 83.8701 40.6517 84.1681C40.4747 84.4583 40.3786 84.7925 40.3634 85.1699ZM42.6794 81.3341L41.7665 81.0809L42.4473 79.6789L43.7678 79.6443L42.6794 81.3341ZM50.1708 88.7902C49.6594 88.8036 49.1918 88.7273 48.7679 88.5622C48.3522 88.3884 47.9893 88.1462 47.6791 87.8356C47.3689 87.525 47.1246 87.1664 46.9461 86.7599C46.7761 86.3533 46.685 85.9193 46.6729 85.4585C46.6567 84.8373 46.7802 84.268 47.0435 83.749C47.3152 83.2308 47.6985 82.8093 48.1934 82.4861C48.6968 82.1622 49.2964 81.9915 49.9923 81.9734C50.6632 81.9554 51.2499 82.0914 51.7525 82.38C52.2632 82.6607 52.6425 83.0444 52.8902 83.5335L51.5557 83.9959C51.3975 83.7238 51.1781 83.5155 50.8974 83.3716C50.625 83.219 50.3252 83.1474 49.9982 83.1561C49.6293 83.1655 49.2964 83.2709 48.9996 83.4714C48.7109 83.6641 48.483 83.9299 48.3157 84.2695C48.1566 84.6014 48.0827 84.9851 48.0941 85.4207C48.1051 85.8399 48.2031 86.2197 48.3882 86.5586C48.5731 86.8896 48.8149 87.1515 49.1136 87.3449C49.4205 87.5297 49.7584 87.6178 50.1274 87.6076C50.3537 87.6021 50.5708 87.5588 50.7784 87.4778C50.9942 87.3882 51.18 87.2741 51.3358 87.1358C51.4913 86.9887 51.6005 86.8307 51.6632 86.6616L53.0321 87.0288C52.8981 87.3591 52.6918 87.654 52.4133 87.9134C52.1432 88.1722 51.8173 88.3821 51.4356 88.5425C51.062 88.6951 50.6404 88.7776 50.1708 88.7902ZM60.3625 88.397L58.979 88.4332L58.8825 84.7484C58.867 84.1532 58.7463 83.7113 58.5207 83.4235C58.2949 83.1357 57.9851 82.9973 57.591 83.0075C57.3478 83.0138 57.098 83.0877 56.8416 83.2284C56.5852 83.3692 56.3594 83.5603 56.1644 83.8001C55.9691 84.0313 55.8293 84.2994 55.7449 84.6037L55.8473 88.515L54.4639 88.552L54.2234 79.3707L55.6069 79.3337L55.7097 83.2583C55.9496 82.807 56.2842 82.45 56.7137 82.1873C57.1428 81.916 57.609 81.7737 58.1121 81.7603C58.5229 81.7493 58.8644 81.8122 59.1364 81.9475C59.4084 82.0827 59.6233 82.2746 59.7808 82.5223C59.9465 82.7614 60.0629 83.0437 60.1301 83.3692C60.2055 83.6861 60.248 84.0242 60.2575 84.3851L60.3625 88.397ZM65.204 88.3963C64.6925 88.4096 64.2248 88.3341 63.801 88.169C63.3853 87.9952 63.0225 87.757 62.7125 87.4542C62.4023 87.1436 62.1581 86.7898 61.9798 86.3911C61.8098 85.9846 61.7187 85.5505 61.7067 85.0897C61.6904 84.4693 61.8181 83.8992 62.0898 83.3802C62.3613 82.8534 62.7486 82.4279 63.2521 82.104C63.7552 81.7721 64.3505 81.5968 65.0381 81.5787C65.7256 81.5614 66.3209 81.7053 66.8239 82.0104C67.3351 82.3076 67.7358 82.7087 68.0258 83.2127C68.3159 83.7168 68.4687 84.2625 68.484 84.8491C68.4867 84.9497 68.4851 85.0465 68.4791 85.1385C68.4729 85.2226 68.4664 85.2941 68.4595 85.3531L63.1897 85.4915C63.2249 85.876 63.3386 86.2134 63.5308 86.502C63.7311 86.7819 63.9802 87.0021 64.2781 87.1617C64.5757 87.3135 64.8922 87.385 65.2276 87.3764C65.5965 87.3661 65.9421 87.2655 66.2643 87.0721C66.5948 86.8786 66.8148 86.6301 66.9243 86.325L68.1155 86.6333C67.9813 86.9557 67.7708 87.2506 67.4841 87.5187C67.2057 87.7774 66.8713 87.9874 66.4812 88.1486C66.0909 88.3019 65.6651 88.3845 65.204 88.3963ZM63.1279 84.5739L67.1023 84.4701C67.0672 84.0934 66.9496 83.7647 66.7493 83.4848C66.5571 83.1962 66.3123 82.976 66.0145 82.825C65.7251 82.6646 65.4043 82.5891 65.0521 82.5978C64.7084 82.6072 64.3919 82.6992 64.1029 82.8746C63.8219 83.0413 63.5931 83.274 63.4163 83.5721C63.2393 83.8622 63.1432 84.1964 63.1279 84.5739ZM65.4439 80.7381L64.5311 80.4849L65.2118 79.0829L66.5324 79.0483L65.4439 80.7381ZM69.4231 86.2346C69.4121 85.8147 69.5199 85.4475 69.7466 85.1306C69.9814 84.8058 70.3062 84.5542 70.721 84.3757C71.1357 84.1886 71.6197 84.0871 72.1731 84.073C72.4665 84.0651 72.7648 84.0785 73.0677 84.1123C73.379 84.1461 73.6533 84.2059 73.8905 84.2924L73.8796 83.8772C73.8676 83.4164 73.7197 83.0594 73.4362 82.8062C73.1528 82.5538 72.751 82.4342 72.2312 82.4476C71.8623 82.4578 71.5161 82.5341 71.1926 82.6764C70.8689 82.8109 70.5256 83.0004 70.1629 83.2449L69.6731 82.3265C70.1015 82.0214 70.5318 81.7918 70.964 81.6377C71.4047 81.4836 71.8681 81.4002 72.3545 81.3876C73.2349 81.3648 73.9327 81.5811 74.4481 82.0371C74.9717 82.4853 75.2447 83.1364 75.2671 83.992L75.3312 86.4446C75.3354 86.6042 75.3636 86.7166 75.4156 86.7819C75.4761 86.848 75.5735 86.8826 75.7079 86.8881L75.7368 87.9944C75.6117 88.0227 75.499 88.0424 75.3986 88.0534C75.2982 88.0644 75.2145 88.0715 75.1474 88.0731C74.8539 88.0809 74.6298 88.0149 74.4752 87.8765C74.3206 87.7381 74.2281 87.5722 74.1979 87.3803L74.1502 87.0044C73.8749 87.3803 73.5176 87.6752 73.0785 87.8883C72.6394 88.1006 72.1934 88.213 71.7406 88.2248C71.3046 88.2366 70.9124 88.1588 70.5641 87.9913C70.2154 87.8159 69.9407 87.5761 69.7397 87.2702C69.5387 86.9651 69.4332 86.6199 69.4231 86.2346ZM73.6217 86.5271C73.7196 86.4155 73.7963 86.3046 73.8521 86.1937C73.9081 86.0836 73.9349 85.9861 73.9327 85.902L73.9128 85.1479C73.6757 85.0614 73.4266 85.0008 73.1656 84.9655C72.9043 84.9222 72.6479 84.9041 72.3964 84.9104C71.8933 84.9238 71.4851 85.0347 71.1718 85.2446C70.8667 85.4538 70.7189 85.7345 70.7281 86.0868C70.7331 86.2794 70.7883 86.4627 70.8935 86.6364C71.0072 86.8094 71.1618 86.9478 71.3575 87.0516C71.5616 87.1554 71.8103 87.2034 72.1038 87.1963C72.4057 87.1884 72.6934 87.1216 72.967 86.9974C73.2407 86.8723 73.4589 86.7159 73.6217 86.5271ZM83.2007 87.7994L81.8175 87.8356L81.7208 84.15C81.7051 83.5383 81.5926 83.0924 81.3835 82.8125C81.1837 82.5325 80.8904 82.3973 80.5043 82.4075C80.2362 82.4146 79.9696 82.4885 79.7054 82.63C79.4483 82.7708 79.2187 82.9611 79.015 83.2017C78.8113 83.4337 78.6674 83.7018 78.5833 84.0061L78.6855 87.9174L77.3024 87.9535L77.1298 81.3758L78.3875 81.3428L78.4221 82.6631C78.5825 82.3658 78.7933 82.1079 79.0567 81.8917C79.3272 81.6668 79.6331 81.4906 79.9736 81.364C80.3148 81.2374 80.6781 81.1698 81.0634 81.1596C81.4574 81.1494 81.7821 81.2123 82.0377 81.3475C82.3011 81.4835 82.5079 81.6754 82.6565 81.9231C82.8138 82.1622 82.9223 82.4452 82.9813 82.7708C83.0481 83.0877 83.0859 83.4266 83.0961 83.7867L83.2007 87.7994ZM88.0422 87.7979C87.5311 87.8112 87.0632 87.7357 86.6394 87.5706C86.2234 87.3968 85.8609 87.1546 85.5503 86.844C85.2405 86.5334 84.9959 86.1748 84.8174 85.7683C84.6476 85.3618 84.5563 84.9277 84.5445 84.4661C84.528 83.8457 84.6515 83.2764 84.9149 82.7574C85.1862 82.2384 85.5699 81.8177 86.0645 81.4938C86.5678 81.1706 87.1678 81 87.8637 80.9811C88.5344 80.9638 89.121 81.0998 89.6235 81.3884C90.1346 81.6683 90.5136 82.0529 90.7613 82.542L89.4269 83.0043C89.2689 82.7315 89.0495 82.5239 88.7688 82.38C88.4959 82.2274 88.1963 82.1559 87.8692 82.1645C87.5004 82.174 87.1678 82.2793 86.8713 82.4798C86.582 82.6717 86.3547 82.9383 86.1872 83.278C86.0276 83.6098 85.9537 83.9935 85.9655 84.4292C85.9765 84.8483 86.0748 85.2273 86.2596 85.567C86.4443 85.8973 86.6865 86.1599 86.9853 86.3533C87.292 86.5381 87.6301 86.6262 87.9989 86.616C88.2254 86.6105 88.4424 86.5672 88.65 86.4862C88.8655 86.3966 89.0511 86.2826 89.2075 86.1442C89.3624 85.9971 89.4717 85.8391 89.5347 85.67L90.9037 86.0365C90.7692 86.3675 90.5632 86.6624 90.2848 86.9211C90.0143 87.1798 89.6888 87.3897 89.3066 87.5509C88.9331 87.7035 88.5116 87.7861 88.0422 87.7979ZM95.2576 87.6091C94.7465 87.6225 94.2786 87.547 93.8548 87.3819C93.4388 87.2081 93.0763 86.9698 92.7665 86.6679C92.4559 86.3565 92.2121 86.0026 92.0336 85.6048C91.8638 85.1974 91.7726 84.7642 91.7608 84.3026C91.7443 83.6822 91.8717 83.1128 92.1437 82.5939C92.415 82.0662 92.8027 81.6408 93.3059 81.3168C93.8092 80.985 94.4044 80.8104 95.0917 80.7924C95.7798 80.7743 96.375 80.9182 96.8775 81.2233C97.3894 81.5205 97.7896 81.9215 98.0798 82.4256C98.37 82.9296 98.5225 83.4753 98.5382 84.062C98.5406 84.1626 98.539 84.2593 98.5327 84.3521C98.5264 84.4363 98.5201 84.507 98.5131 84.566L93.2438 84.7044C93.2792 85.0897 93.3924 85.4263 93.5843 85.7148C93.7848 85.9948 94.0341 86.215 94.3321 86.3746C94.6293 86.5263 94.9462 86.5979 95.2812 86.5892C95.6508 86.5798 95.996 86.4784 96.3184 86.2849C96.6487 86.0915 96.8688 85.843 96.9781 85.5379L98.1694 85.8462C98.035 86.1686 97.825 86.4634 97.538 86.7316C97.2596 86.9903 96.9255 87.2002 96.5354 87.3614C96.1446 87.5148 95.7192 87.5973 95.2576 87.6091ZM93.1817 83.7875L97.1558 83.6829C97.1212 83.3063 97.0033 82.9784 96.8028 82.6984C96.6109 82.4091 96.3664 82.1897 96.0683 82.0379C95.779 81.8775 95.4581 81.802 95.1059 81.8115C94.7622 81.8201 94.4461 81.9121 94.1568 82.0875C93.876 82.2542 93.6472 82.4869 93.4703 82.7857C93.2934 83.0751 93.1974 83.4093 93.1817 83.7875ZM102.348 87.4236C101.794 87.4377 101.268 87.3638 100.769 87.2002C100.269 87.0288 99.8388 86.7678 99.4771 86.4163L99.9686 85.4719C100.355 85.7974 100.738 86.0309 101.12 86.1717C101.509 86.3125 101.893 86.3785 102.27 86.3683C102.655 86.3581 102.968 86.2786 103.208 86.13C103.447 85.9728 103.563 85.751 103.555 85.4664C103.55 85.2564 103.483 85.1031 103.355 85.0056C103.226 84.9088 103.039 84.8255 102.794 84.7563C102.557 84.6871 102.27 84.6108 101.932 84.5275C101.459 84.3969 101.061 84.2601 100.738 84.1178C100.416 83.9668 100.171 83.7804 100.006 83.5579C99.8412 83.3362 99.7539 83.0484 99.7445 82.6969C99.7335 82.2691 99.8333 81.9011 100.043 81.5936C100.253 81.2862 100.549 81.0479 100.93 80.8781C101.32 80.709 101.771 80.617 102.283 80.6036C102.761 80.5911 103.203 80.6555 103.609 80.7955C104.024 80.9276 104.39 81.1446 104.709 81.4466L104.142 82.38C103.841 82.1197 103.534 81.9302 103.22 81.813C102.915 81.6951 102.586 81.6408 102.235 81.6495C102.034 81.655 101.841 81.6849 101.658 81.7399C101.474 81.7871 101.322 81.8752 101.199 82.0041C101.085 82.1244 101.03 82.2935 101.036 82.5121C101.041 82.6874 101.095 82.829 101.198 82.9351C101.301 83.0421 101.456 83.1301 101.658 83.2001C101.861 83.2701 102.111 83.348 102.407 83.4321C102.922 83.5697 103.362 83.7097 103.726 83.8512C104.091 83.9841 104.373 84.1658 104.572 84.3954C104.779 84.6163 104.888 84.9277 104.898 85.3303C104.915 85.968 104.689 86.4729 104.22 86.8456C103.76 87.2105 103.136 87.4031 102.348 87.4236ZM110.031 81.7478L109.151 81.7706L109.123 80.7019L110.003 80.6783L109.996 80.4141C109.987 80.0705 110.033 79.7418 110.134 79.4288C110.235 79.1072 110.391 78.8226 110.602 78.5736C110.814 78.3163 111.072 78.1124 111.379 77.9617C111.694 77.8108 112.062 77.7299 112.481 77.719C112.791 77.7108 113.081 77.7367 113.351 77.7968C113.63 77.8566 113.884 77.9423 114.113 78.0538C114.351 78.1566 114.559 78.2686 114.738 78.3898L114.2 79.4359C114.01 79.2732 113.772 79.141 113.484 79.0396C113.196 78.9374 112.901 78.891 112.6 78.8989C112.314 78.9067 112.077 78.9798 111.888 79.119C111.707 79.2582 111.573 79.4375 111.487 79.6577C111.408 79.8778 111.373 80.1059 111.378 80.3402L111.387 80.6422L114.833 80.5517L115.001 86.9667L113.617 87.0029L113.477 81.6573L111.415 81.7116L111.554 87.0563L110.171 87.0925L110.031 81.7478ZM119.254 86.9808C118.701 86.995 118.174 86.9211 117.675 86.7575C117.175 86.5861 116.744 86.325 116.383 85.9735L116.874 85.0292C117.26 85.3547 117.644 85.5882 118.025 85.729C118.415 85.8698 118.798 85.9358 119.176 85.9256C119.562 85.9154 119.874 85.8359 120.114 85.6873C120.353 85.5301 120.468 85.3091 120.461 85.0236C120.456 84.8137 120.389 84.6604 120.26 84.5629C120.132 84.4661 119.945 84.3828 119.7 84.3136C119.463 84.2444 119.176 84.1681 118.838 84.0848C118.365 83.9542 117.967 83.8174 117.645 83.6751C117.322 83.5241 117.078 83.3377 116.913 83.1152C116.747 82.8935 116.66 82.6057 116.651 82.2542C116.64 81.8264 116.739 81.4584 116.949 81.1509C117.159 80.8435 117.455 80.6052 117.837 80.4354C118.227 80.2663 118.677 80.1743 119.188 80.1609C119.666 80.1483 120.108 80.2128 120.515 80.3528C120.929 80.4849 121.296 80.7019 121.614 81.0039L121.047 81.9373C120.747 81.677 120.44 81.4875 120.126 81.3703C119.821 81.2524 119.493 81.1981 119.14 81.2068C118.939 81.2123 118.747 81.2421 118.564 81.298C118.381 81.3444 118.227 81.4324 118.105 81.5614C117.991 81.6817 117.936 81.8508 117.942 82.0694C117.947 82.2447 118.001 82.3863 118.104 82.4924C118.208 82.5994 118.361 82.6874 118.564 82.7574C118.768 82.8274 119.017 82.9053 119.313 82.9894C119.828 83.127 120.268 83.267 120.633 83.4085C120.997 83.5414 121.278 83.723 121.477 83.9527C121.685 84.1736 121.793 84.485 121.804 84.8876C121.821 85.5253 121.595 86.0302 121.127 86.4029C120.667 86.7677 120.042 86.9604 119.254 86.9808ZM126.325 86.7961C125.813 86.8094 125.345 86.7331 124.921 86.568C124.506 86.3942 124.143 86.152 123.833 85.8414C123.523 85.5308 123.279 85.1723 123.1 84.7657C122.93 84.3592 122.839 83.9251 122.827 83.4643C122.811 82.8431 122.934 82.2738 123.197 81.7548C123.469 81.2366 123.852 80.8152 124.347 80.492C124.851 80.168 125.451 79.9974 126.147 79.9793C126.817 79.9612 127.404 80.0972 127.906 80.3858C128.417 80.6665 128.797 81.0503 129.044 81.5394L127.71 82.0017C127.552 81.7297 127.332 81.5213 127.052 81.3774C126.779 81.2248 126.479 81.1533 126.152 81.1619C125.783 81.1714 125.451 81.2767 125.153 81.4773C124.865 81.6699 124.637 81.9357 124.469 82.2754C124.31 82.6072 124.237 82.991 124.248 83.4266C124.259 83.8457 124.357 84.2255 124.542 84.5644C124.727 84.8955 124.969 85.1573 125.267 85.3508C125.574 85.5356 125.912 85.6236 126.281 85.6134C126.508 85.6079 126.725 85.5646 126.932 85.4837C127.148 85.394 127.334 85.28 127.49 85.1416C127.645 84.9946 127.755 84.8365 127.817 84.6674L129.186 85.0347C129.052 85.3649 128.846 85.6598 128.567 85.9193C128.297 86.178 127.971 86.3879 127.59 86.5484C127.216 86.7009 126.795 86.7835 126.325 86.7961ZM130.089 84.6454C130.078 84.2263 130.186 83.8583 130.413 83.5422C130.648 83.2174 130.972 82.965 131.388 82.7865C131.802 82.5994 132.286 82.4987 132.839 82.4846C133.133 82.4767 133.431 82.4901 133.734 82.5239C134.045 82.5577 134.32 82.6175 134.556 82.704L134.546 82.2888C134.534 81.8272 134.386 81.471 134.103 81.2178C133.819 80.9654 133.417 80.8458 132.897 80.8592C132.529 80.8686 132.183 80.9449 131.859 81.088C131.535 81.2225 131.192 81.412 130.829 81.6558L130.339 80.7373C130.768 80.433 131.198 80.2034 131.631 80.0493C132.071 79.8951 132.535 79.8118 133.021 79.7992C133.901 79.7756 134.599 79.9927 135.115 80.4487C135.638 80.8969 135.911 81.548 135.933 82.4036L135.998 84.8562C136.002 85.015 136.03 85.1274 136.082 85.1935C136.143 85.2588 136.24 85.2941 136.374 85.2989L136.404 86.406C136.278 86.4343 136.165 86.454 136.065 86.465C135.965 86.476 135.881 86.4823 135.814 86.4847C135.521 86.4917 135.296 86.4265 135.142 86.2881C134.987 86.1497 134.895 85.9838 134.864 85.7919L134.817 85.4152C134.542 85.7919 134.184 86.0868 133.745 86.2991C133.305 86.5122 132.86 86.6246 132.407 86.6364C131.971 86.6482 131.579 86.5704 131.23 86.4029C130.882 86.2275 130.607 85.9869 130.406 85.6818C130.205 85.3767 130.1 85.0315 130.089 84.6454ZM134.288 84.9387C134.386 84.8271 134.463 84.7154 134.519 84.6053C134.575 84.4944 134.601 84.3977 134.599 84.3136L134.579 83.5587C134.342 83.473 134.093 83.4124 133.832 83.3771C133.57 83.3338 133.314 83.3149 133.062 83.322C132.56 83.3346 132.151 83.4463 131.838 83.6562C131.533 83.8654 131.385 84.1461 131.395 84.4984C131.399 84.691 131.454 84.8742 131.56 85.048C131.674 85.221 131.828 85.3594 132.024 85.4632C132.228 85.567 132.477 85.615 132.77 85.6071C133.072 85.5992 133.36 85.5332 133.633 85.409C133.907 85.2839 134.126 85.1274 134.288 84.9387ZM137.74 77.1833L139.124 77.1471L139.315 84.4292C139.323 84.7649 139.38 84.9773 139.483 85.0669C139.586 85.1565 139.712 85.199 139.863 85.1951C140.031 85.1911 140.186 85.1699 140.327 85.1329C140.478 85.0952 140.607 85.0496 140.714 84.9969L140.944 86.086C140.745 86.1748 140.507 86.2519 140.233 86.318C139.958 86.384 139.711 86.4202 139.493 86.4257C139.024 86.4383 138.651 86.318 138.376 86.0648C138.101 85.8037 137.957 85.438 137.945 84.9686L137.74 77.1833ZM144.987 86.307C144.475 86.3203 144.008 86.2448 143.584 86.0797C143.168 85.9059 142.806 85.6677 142.495 85.3657C142.186 85.0543 141.941 84.7005 141.763 84.3026C141.593 83.8953 141.501 83.462 141.49 83.0004C141.473 82.38 141.601 81.8099 141.873 81.2917C142.145 80.764 142.532 80.3386 143.035 80.0147C143.538 79.6828 144.133 79.5083 144.821 79.4902C145.509 79.4721 146.104 79.616 146.607 79.9211C147.118 80.2183 147.518 80.6194 147.809 81.1234C148.099 81.6275 148.252 82.1732 148.267 82.7598C148.269 82.8604 148.268 82.9571 148.262 83.0499C148.256 83.1341 148.25 83.2048 148.243 83.2638L142.973 83.4022C143.008 83.7875 143.122 84.1241 143.314 84.4127C143.514 84.6926 143.763 84.9128 144.061 85.0724C144.359 85.2242 144.675 85.2957 145.011 85.2871C145.38 85.2776 145.725 85.1762 146.047 84.9828C146.378 84.7893 146.598 84.5408 146.708 84.2357L147.898 84.544C147.765 84.8664 147.554 85.1613 147.268 85.4294C146.988 85.6881 146.654 85.8981 146.264 86.0593C145.874 86.2126 145.448 86.2952 144.987 86.307ZM142.911 82.4853L146.885 82.3808C146.85 82.0041 146.733 81.6762 146.532 81.3955C146.341 81.1069 146.095 80.8867 145.798 80.7357C145.508 80.5753 145.188 80.4998 144.836 80.5093C144.491 80.5179 144.175 80.6099 143.886 80.7853C143.605 80.952 143.376 81.1847 143.199 81.4828C143.022 81.7729 142.926 82.1071 142.911 82.4853ZM152.077 86.1214C151.524 86.1355 150.997 86.0616 150.498 85.8981C149.999 85.7266 149.568 85.4656 149.206 85.1141L149.697 84.1697C150.084 84.4952 150.467 84.7288 150.849 84.8695C151.239 85.0103 151.622 85.0763 151.999 85.0661C152.385 85.0559 152.697 84.9765 152.937 84.8278C153.176 84.6706 153.292 84.4488 153.285 84.1642C153.279 83.9542 153.212 83.8009 153.083 83.7034C152.955 83.6067 152.768 83.5233 152.524 83.4541C152.287 83.3849 151.999 83.3086 151.662 83.2253C151.188 83.0948 150.79 82.9579 150.468 82.8156C150.145 82.6646 149.901 82.4783 149.736 82.2557C149.57 82.034 149.483 81.7462 149.474 81.3947C149.463 80.9669 149.562 80.5989 149.772 80.2915C149.982 79.984 150.279 79.7457 150.66 79.5759C151.05 79.4068 151.501 79.3148 152.012 79.3015C152.49 79.2889 152.932 79.3534 153.338 79.4933C153.753 79.6254 154.119 79.8425 154.437 80.1444L153.871 81.0778C153.57 80.8175 153.263 80.628 152.95 80.5101C152.645 80.3929 152.316 80.3379 151.964 80.3473C151.762 80.3528 151.57 80.3827 151.387 80.4377C151.204 80.4849 151.051 80.573 150.928 80.7019C150.814 80.8222 150.76 80.9913 150.765 81.2091C150.77 81.3853 150.824 81.5268 150.927 81.633C151.031 81.7399 151.184 81.828 151.387 81.898C151.591 81.9679 151.84 82.0458 152.136 82.1299C152.652 82.2675 153.091 82.4075 153.456 82.549C153.82 82.6819 154.102 82.8628 154.301 83.0932C154.508 83.3141 154.617 83.6255 154.628 84.0281C154.644 84.6659 154.419 85.1707 153.95 85.5434C153.489 85.9083 152.866 86.1009 152.077 86.1214ZM165.585 85.6417L161.177 81.2138C160.807 80.8372 160.514 80.5179 160.296 80.2553C160.08 79.9927 159.922 79.7489 159.825 79.5248C159.726 79.3007 159.674 79.0671 159.667 78.8242C159.656 78.4134 159.748 78.0502 159.941 77.7347C160.142 77.419 160.422 77.1684 160.777 76.9829C161.133 76.7973 161.533 76.6988 161.978 76.6871C162.389 76.6763 162.768 76.7419 163.116 76.8839C163.463 77.0174 163.745 77.224 163.962 77.5036C164.179 77.7748 164.293 78.1157 164.304 78.5266C164.314 78.9122 164.223 79.2629 164.029 79.5782C163.837 79.8936 163.576 80.1861 163.247 80.455C162.918 80.7232 162.552 80.9889 162.148 81.2516C161.835 81.4694 161.551 81.6864 161.296 81.9027C161.041 82.111 160.842 82.3344 160.697 82.5726C160.561 82.803 160.496 83.0609 160.503 83.3456C160.511 83.631 160.597 83.8842 160.762 84.1068C160.927 84.3207 161.146 84.4866 161.417 84.6053C161.689 84.7162 161.984 84.7673 162.302 84.7587C162.696 84.7484 163.067 84.6462 163.414 84.4528C163.762 84.2593 164.069 83.9904 164.337 83.6483C164.605 83.2968 164.809 82.8887 164.947 82.424C165.095 81.9585 165.161 81.4537 165.147 80.9087L166.278 80.8789C166.298 81.6164 166.198 82.2864 165.979 82.888C165.768 83.4887 165.471 84.0085 165.088 84.4465C164.713 84.8845 164.274 85.2273 163.768 85.475C163.271 85.7148 162.742 85.8422 162.18 85.8572C161.602 85.8721 161.087 85.7722 160.637 85.5576C160.186 85.3343 159.83 85.0331 159.568 84.6541C159.315 84.2751 159.182 83.8457 159.17 83.3684C159.158 82.899 159.251 82.4893 159.452 82.1401C159.661 81.7824 159.929 81.4647 160.258 81.1871C160.595 80.9017 160.932 80.6453 161.27 80.4181C161.632 80.1743 161.946 79.9604 162.21 79.7772C162.473 79.5853 162.678 79.3958 162.824 79.2071C162.97 79.0105 163.04 78.8029 163.035 78.585C163.027 78.3167 162.925 78.1054 162.728 77.9512C162.539 77.7883 162.299 77.7107 162.004 77.7184C161.787 77.7241 161.595 77.7753 161.43 77.8719C161.273 77.9683 161.15 78.0932 161.062 78.2465C160.974 78.3998 160.932 78.5688 160.937 78.7534C160.941 78.8792 160.977 79.0082 161.047 79.1403C161.118 79.2645 161.248 79.4289 161.438 79.6341C161.628 79.8299 161.891 80.1004 162.227 80.444L167.409 85.5937L165.585 85.6417ZM174.234 85.5411C173.68 85.556 173.154 85.4813 172.655 85.3185C172.154 85.1463 171.724 84.8853 171.363 84.5338L171.854 83.5894C172.24 83.9149 172.624 84.1485 173.005 84.2892C173.395 84.4307 173.778 84.496 174.156 84.4858C174.541 84.4756 174.854 84.3962 175.093 84.2475C175.332 84.0903 175.448 83.8693 175.441 83.5839C175.435 83.3747 175.368 83.2206 175.24 83.1239C175.112 83.0263 174.925 82.943 174.679 82.8738C174.443 82.8046 174.156 82.7283 173.818 82.645C173.344 82.5144 172.946 82.3784 172.624 82.2353C172.302 82.0843 172.057 81.8979 171.892 81.6754C171.727 81.4537 171.639 81.1667 171.63 80.8144C171.619 80.3866 171.719 80.0186 171.929 79.7111C172.139 79.4037 172.434 79.1654 172.816 78.9956C173.206 78.8265 173.656 78.7345 174.168 78.7211C174.646 78.7086 175.088 78.773 175.495 78.913C175.909 79.0451 176.276 79.2621 176.594 79.5641L176.027 80.4975C175.727 80.2372 175.419 80.0477 175.106 79.9305C174.801 79.8126 174.472 79.7583 174.12 79.767C173.919 79.7725 173.726 79.8031 173.543 79.8582C173.36 79.9046 173.207 79.9927 173.085 80.1216C172.971 80.2419 172.916 80.411 172.922 80.6296C172.927 80.8057 172.98 80.9465 173.084 81.0526C173.188 81.1596 173.341 81.2477 173.544 81.3176C173.747 81.3884 173.997 81.4655 174.293 81.5496C174.808 81.6872 175.248 81.8272 175.613 81.9687C175.977 82.1016 176.258 82.2833 176.457 82.5129C176.664 82.7338 176.773 83.0452 176.784 83.4478C176.801 84.0855 176.574 84.5904 176.106 84.9639C175.646 85.328 175.021 85.5206 174.234 85.5411ZM181.279 85.3571C180.759 85.3704 180.292 85.2942 179.876 85.129C179.46 84.9552 179.098 84.713 178.787 84.4024C178.485 84.0918 178.25 83.7372 178.08 83.3385C177.91 82.932 177.818 82.4979 177.807 82.0371C177.795 81.5756 177.863 81.1376 178.011 80.7224C178.16 80.3072 178.377 79.9408 178.662 79.6231C178.956 79.2967 179.305 79.0396 179.712 78.8532C180.126 78.6574 180.59 78.5533 181.101 78.5399C181.613 78.5264 182.076 78.6066 182.492 78.7801C182.916 78.9452 183.278 79.1835 183.58 79.4941C183.89 79.7969 184.13 80.1515 184.3 80.558C184.47 80.9646 184.561 81.3986 184.573 81.8594C184.586 82.321 184.517 82.759 184.369 83.1742C184.22 83.5807 183.998 83.9471 183.705 84.2735C183.42 84.5998 183.07 84.8609 182.656 85.0567C182.249 85.243 181.791 85.3429 181.279 85.3571ZM179.228 82.012C179.239 82.4311 179.337 82.8062 179.522 83.1372C179.707 83.4683 179.949 83.7262 180.247 83.911C180.546 84.0966 180.88 84.1838 181.248 84.1744C181.609 84.165 181.933 84.0596 182.222 83.8591C182.518 83.6507 182.75 83.3755 182.918 83.0358C183.085 82.6874 183.162 82.3076 183.152 81.8972C183.141 81.4773 183.043 81.103 182.858 80.7719C182.673 80.4409 182.427 80.1829 182.121 79.9982C181.822 79.8047 181.492 79.7127 181.132 79.7222C180.763 79.7316 180.435 79.8409 180.146 80.0501C179.858 80.2592 179.63 80.5337 179.463 80.8734C179.295 81.2052 179.217 81.585 179.228 82.012ZM189.122 85.151C188.61 85.1644 188.143 85.0889 187.719 84.9238C187.303 84.75 186.94 84.5078 186.63 84.1972C186.32 83.8866 186.076 83.528 185.897 83.1215C185.727 82.715 185.636 82.2809 185.624 81.8193C185.608 81.1989 185.731 80.6296 185.995 80.1106C186.266 79.5916 186.65 79.1709 187.144 78.847C187.648 78.5237 188.248 78.3527 188.944 78.3345C189.614 78.317 190.201 78.4526 190.703 78.7416C191.215 79.0215 191.594 79.406 191.841 79.8951L190.507 80.3575C190.349 80.0847 190.129 79.8771 189.849 79.7332C189.576 79.5806 189.276 79.5091 188.949 79.5177C188.58 79.5271 188.248 79.6325 187.95 79.833C187.662 80.0249 187.434 80.2915 187.266 80.6312C187.107 80.963 187.034 81.3467 187.045 81.7824C187.056 82.2015 187.154 82.5805 187.339 82.9202C187.524 83.2505 187.766 83.5131 188.064 83.7065C188.371 83.8913 188.709 83.9794 189.078 83.9692C189.305 83.9637 189.522 83.9196 189.729 83.8394C189.945 83.7498 190.131 83.6358 190.287 83.4974C190.442 83.3503 190.552 83.1923 190.615 83.0232L191.983 83.3896C191.849 83.7207 191.643 84.0156 191.365 84.2743C191.094 84.533 190.769 84.7429 190.387 84.9041C190.013 85.0567 189.592 85.1392 189.122 85.151ZM193.415 84.9128L193.243 78.3352L194.626 78.299L194.799 84.8766L193.415 84.9128ZM193.214 77.2536L193.174 75.7317L194.558 75.6955L194.598 77.2173L193.214 77.2536ZM196.184 82.9147C196.173 82.4956 196.281 82.1276 196.507 81.8115C196.743 81.4867 197.067 81.2343 197.482 81.0558C197.897 80.8686 198.38 80.768 198.934 80.7538C199.227 80.746 199.526 80.7593 199.829 80.7931C200.14 80.827 200.415 80.8867 200.651 80.9732L200.64 80.558C200.629 80.0964 200.481 79.7402 200.198 79.487C199.914 79.2346 199.512 79.1151 198.992 79.1285C198.623 79.1379 198.277 79.2142 197.953 79.3573C197.63 79.4918 197.287 79.6805 196.924 79.925L196.434 79.0066C196.863 78.7023 197.293 78.4725 197.725 78.3185C198.166 78.1643 198.629 78.0809 199.116 78.0682C199.996 78.0451 200.694 78.2618 201.209 78.718C201.733 79.1662 202.005 79.8173 202.028 80.6728L202.092 83.1254C202.097 83.2843 202.125 83.3967 202.177 83.4628C202.237 83.528 202.334 83.5634 202.469 83.5681L202.498 84.6753C202.373 84.7036 202.26 84.7233 202.16 84.7343C202.059 84.7453 201.976 84.7516 201.909 84.7539C201.615 84.761 201.391 84.6957 201.236 84.5573C201.082 84.419 200.99 84.253 200.959 84.0612L200.912 83.6845C200.636 84.0612 200.279 84.356 199.84 84.5684C199.4 84.7815 198.954 84.8939 198.502 84.9057C198.066 84.9167 197.674 84.8396 197.325 84.6722C196.977 84.4968 196.702 84.2562 196.501 83.9511C196.3 83.646 196.194 83.3008 196.184 82.9147ZM200.382 83.208C200.481 83.0963 200.557 82.9847 200.613 82.8746C200.669 82.7637 200.696 82.667 200.694 82.5829L200.674 81.828C200.437 81.7423 200.187 81.6817 199.926 81.6463C199.665 81.6031 199.409 81.5842 199.157 81.5913C198.654 81.6039 198.246 81.7155 197.933 81.9255C197.628 82.1346 197.48 82.4154 197.49 82.7676C197.494 82.9603 197.549 83.1435 197.655 83.3165C197.768 83.4903 197.923 83.6287 198.119 83.7325C198.322 83.8363 198.572 83.8842 198.865 83.8764C199.167 83.8685 199.455 83.8025 199.728 83.6782C200.002 83.5532 200.22 83.3967 200.382 83.208ZM203.835 75.4526L205.218 75.4163L205.41 82.6984C205.418 83.0342 205.474 83.2465 205.577 83.3362C205.68 83.4258 205.807 83.4683 205.958 83.4643C206.126 83.4604 206.281 83.4392 206.422 83.4022C206.573 83.3645 206.701 83.3189 206.808 83.2662L207.039 84.3553C206.84 84.4441 206.602 84.5212 206.327 84.5872C206.052 84.6533 205.806 84.6895 205.587 84.695C205.118 84.7075 204.746 84.5872 204.471 84.334C204.195 84.073 204.052 83.7073 204.039 83.2379L203.835 75.4526ZM211.081 84.5762C210.57 84.5896 210.102 84.5141 209.679 84.349C209.263 84.1752 208.9 83.9369 208.59 83.635C208.28 83.3236 208.036 82.9697 207.857 82.5718C207.688 82.1645 207.596 81.7305 207.585 81.2697C207.568 80.6492 207.696 80.0792 207.967 79.561C208.239 79.0333 208.626 78.6078 209.13 78.2842C209.633 77.9522 210.228 77.7771 210.915 77.7591C211.604 77.7411 212.199 77.885 212.702 78.1906C213.213 78.4877 213.613 78.8886 213.904 79.3927C214.194 79.8967 214.346 80.4424 214.362 81.029C214.364 81.1297 214.363 81.2264 214.356 81.3192C214.351 81.4033 214.344 81.4741 214.338 81.5331L209.068 81.6715C209.103 82.056 209.216 82.3933 209.409 82.6819C209.609 82.9619 209.858 83.182 210.156 83.3417C210.453 83.4934 210.77 83.565 211.105 83.5563C211.475 83.5469 211.82 83.4455 212.142 83.252C212.472 83.0586 212.693 82.8101 212.802 82.505L213.993 82.8133C213.859 83.1357 213.649 83.4305 213.362 83.6987C213.083 83.9574 212.749 84.1673 212.359 84.3285C211.968 84.4819 211.543 84.5644 211.081 84.5762ZM209.005 80.7538L212.98 80.65C212.945 80.2734 212.827 79.9455 212.627 79.6647C212.435 79.3762 212.19 79.156 211.892 79.005C211.603 78.8446 211.282 78.7691 210.93 78.7785C210.586 78.7872 210.27 78.8792 209.981 79.0546C209.7 79.2213 209.471 79.454 209.294 79.752C209.117 80.0422 209.021 80.3764 209.005 80.7538ZM218.172 84.3906C217.618 84.4048 217.092 84.3309 216.593 84.1673C216.094 83.9959 215.663 83.7348 215.301 83.3833L215.792 82.439C216.178 82.7645 216.562 82.998 216.944 83.1388C217.333 83.2795 217.717 83.3456 218.094 83.3354C218.479 83.3252 218.792 83.2457 219.031 83.0971C219.27 82.9399 219.387 82.7181 219.379 82.4334C219.373 82.2235 219.307 82.0702 219.178 81.9727C219.05 81.8759 218.863 81.7926 218.618 81.7234C218.381 81.6542 218.094 81.5779 217.756 81.4946C217.282 81.364 216.885 81.2272 216.562 81.0849C216.24 80.9339 215.995 80.7475 215.83 80.525C215.665 80.3033 215.578 80.0155 215.568 79.664C215.557 79.2362 215.657 78.8682 215.867 78.5608C216.077 78.2533 216.373 78.0148 216.754 77.8454C217.144 77.6758 217.595 77.5843 218.107 77.5708C218.585 77.5583 219.027 77.6222 219.433 77.7627C219.848 77.8945 220.214 78.1114 220.532 78.4135L219.965 79.3471C219.665 79.0868 219.358 78.8973 219.045 78.7793C218.739 78.6622 218.411 78.6075 218.059 78.6167C217.857 78.622 217.665 78.6519 217.481 78.707C217.298 78.7542 217.146 78.8422 217.023 78.9712C216.909 79.0915 216.855 79.2606 216.86 79.4784C216.865 79.6545 216.918 79.7961 217.022 79.9022C217.126 80.0092 217.279 80.0972 217.482 80.1672C217.685 80.2372 217.935 80.3151 218.231 80.3992C218.747 80.5368 219.186 80.6768 219.551 80.8175C219.915 80.9512 220.197 81.1321 220.396 81.3625C220.603 81.5834 220.712 81.8948 220.722 82.2974C220.739 82.9351 220.513 83.44 220.045 83.8127C219.584 84.1775 218.96 84.3702 218.172 84.3906Z" fill="#2D75B8"/>
<path d="M22.7798 36.144V43.398C20.6331 44.1765 18.8638 44.5657 17.472 44.5657C13.792 44.5657 10.7488 43.3862 8.34262 41.0272C7.21029 39.8949 6.32566 38.5738 5.68873 37.064C5.07538 35.5307 4.76871 33.9855 4.76871 32.4286C4.76871 30.8008 5.08718 29.2203 5.72411 27.6869C6.38464 26.1536 7.25747 24.8325 8.34262 23.7238C10.7488 21.2704 13.7212 20.0437 17.2597 20.0437C18.9582 20.0437 20.7982 20.4448 22.7798 21.2468V28.5716C21.388 26.8495 19.6069 25.9885 17.4366 25.9885C15.7617 25.9885 14.3463 26.5074 13.1904 27.5454C11.8222 28.8193 11.1381 30.4352 11.1381 32.3932C11.1381 34.2568 11.775 35.7902 13.0489 36.9933C14.2048 38.0784 15.6674 38.621 17.4366 38.621C19.489 38.621 21.27 37.7953 22.7798 36.144ZM42.5201 44.0349L41.0693 40.0718H32.506L30.9137 44.0349H24.4382L33.4968 20.433H40.1846L49.0663 44.0349H42.5201ZM34.2045 35.4009H39.4415L36.7876 27.7577L34.2045 35.4009ZM51.7897 20.433H57.9113V38.8333H65.2714V44.0349H51.7897V20.433ZM81.8222 20.433V25.6346H74.5327V29.5624H81.433V34.764H74.5327V38.8333H81.8222V44.0349H68.411V20.433H81.8222ZM91.8449 44.0349H85.7232V20.433H91.8449L103.133 34.8701V20.433H109.254V44.0349H103.133L91.8449 29.5977V44.0349ZM122.761 44.0349H114.197V20.433H122.23C126.24 20.433 129.366 21.5181 131.607 23.6884C133.801 25.7879 134.898 28.6541 134.898 32.287C134.898 35.684 133.872 38.4087 131.819 40.461C130.781 41.499 129.484 42.36 127.927 43.0441C126.37 43.7047 124.648 44.0349 122.761 44.0349ZM120.319 25.6346V38.8333H121.557C123.846 38.8333 125.568 38.2671 126.724 37.1348C127.927 35.9789 128.528 34.363 128.528 32.287C128.528 29.9988 127.915 28.2767 126.688 27.1208C125.627 26.13 123.999 25.6346 121.805 25.6346H120.319ZM138.801 20.433H148.355C150.856 20.433 152.778 21.1289 154.123 22.5207C155.468 23.8889 156.14 25.6582 156.14 27.8285C156.14 29.9044 155.515 31.5439 154.264 32.747C153.392 33.5727 152.306 34.1153 151.009 34.3748L158.405 44.0349H150.797L144.923 34.9763V44.0349H138.801V20.433ZM144.923 25.1746V31.0132H146.09C147.412 31.0132 148.402 30.6947 149.063 30.0578C149.582 29.5388 149.841 28.8782 149.841 28.0762C149.841 27.2505 149.57 26.59 149.027 26.0946C148.414 25.4813 147.435 25.1746 146.09 25.1746H144.923ZM160.986 20.433H167.108V44.0349H160.986V20.433ZM185.49 20.433V25.6346H178.201V29.5624H185.101V34.764H178.201V38.8333H185.49V44.0349H172.079V20.433H185.49ZM189.391 20.433H198.945C201.446 20.433 203.368 21.1289 204.713 22.5207C206.057 23.8889 206.73 25.6582 206.73 27.8285C206.73 29.9044 206.105 31.5439 204.854 32.747C203.982 33.5727 202.896 34.1153 201.599 34.3748L208.994 44.0349H201.387L195.513 34.9763V44.0349H189.391V20.433ZM195.513 25.1746V31.0132H196.68C198.001 31.0132 198.992 30.6947 199.653 30.0578C200.172 29.5388 200.431 28.8782 200.431 28.0762C200.431 27.2505 200.16 26.59 199.617 26.0946C199.004 25.4813 198.025 25.1746 196.68 25.1746H195.513ZM0 70.22L2.61851 65.2661C4.317 66.8702 6.12165 67.6723 8.03249 67.6723C9.11764 67.6723 9.90791 67.401 10.4033 66.8584C10.8043 66.4574 11.0049 65.962 11.0049 65.3722C11.0049 64.8061 10.7807 64.3343 10.3325 63.9568C9.95509 63.6266 8.94071 63.2137 7.2894 62.7183L5.69702 62.2229C4.11648 61.7275 2.98416 61.0906 2.30004 60.3121C1.40361 59.3449 0.955402 57.9531 0.955402 56.1367C0.955402 53.7777 1.6749 51.8787 3.1139 50.4397C4.60008 48.9535 6.61708 48.2104 9.16482 48.2104C11.5946 48.2104 14.0244 48.8473 16.4542 50.1212L14.0126 54.8982C12.668 53.8366 11.3233 53.3059 9.97868 53.3059C9.12943 53.3059 8.45711 53.5418 7.96172 54.0136C7.56069 54.4146 7.36017 54.8392 7.36017 55.2874C7.36017 55.7121 7.46633 56.0659 7.67864 56.349C8.0089 56.75 8.69302 57.1039 9.73098 57.4106L11.6064 57.9767C13.588 58.5901 15.0152 59.3685 15.888 60.3121C16.9024 61.3973 17.4096 62.8009 17.4096 64.523C17.4096 67 16.6665 68.9815 15.1803 70.4677C13.5762 72.0718 11.2525 72.8739 8.20942 72.8739C6.53451 72.8739 4.98932 72.6144 3.57391 72.0954C2.37081 71.6708 1.17951 71.0457 0 70.22ZM21.2768 48.7412H27.3984V62.7183C27.3984 64.3697 27.7995 65.5845 28.6015 66.363C29.4036 67.1179 30.3708 67.4953 31.5031 67.4953C32.6355 67.4953 33.5791 67.1533 34.334 66.4692C34.7586 66.0917 35.077 65.6199 35.2894 65.0538C35.5253 64.464 35.655 64.004 35.6786 63.6737C35.7022 63.3199 35.714 62.8245 35.714 62.1876V48.7412H41.8356V62.2937C41.8356 63.3317 41.8002 64.1927 41.7295 64.8768C41.6587 65.5374 41.411 66.3512 40.9864 67.3184C40.5853 68.262 39.9838 69.1349 39.1817 69.9369C37.2473 71.8949 34.6524 72.8739 31.397 72.8739C27.9528 72.8739 25.3461 71.9303 23.5768 70.0431C22.0435 68.3682 21.2768 65.7851 21.2768 62.2937V48.7412ZM46.779 48.7412H56.333C58.8336 48.7412 60.7562 49.4371 62.1008 50.8289C63.4455 52.1971 64.1178 53.9664 64.1178 56.1367C64.1178 58.2126 63.4927 59.8521 62.2424 61.0552C61.3695 61.8809 60.2844 62.4235 58.9869 62.6829L66.3825 72.3431H58.7746L52.9007 63.2845V72.3431H46.779V48.7412ZM52.9007 53.4828V59.3214H54.0684C55.3894 59.3214 56.3802 59.0029 57.0407 58.366C57.5597 57.847 57.8192 57.1864 57.8192 56.3844C57.8192 55.5587 57.5479 54.8982 57.0054 54.4028C56.392 53.7895 55.413 53.4828 54.0684 53.4828H52.9007ZM68.2562 65.1953V60.4891H77.2088V65.1953H68.2562ZM86.4632 72.3431H80.3769L84.3755 48.7412H90.4263L95.2033 61.3383L100.263 48.7412H106.385L109.924 72.3431H103.802L102.068 58.7552L96.3711 72.3431H93.9295L88.4801 58.7552L86.4632 72.3431ZM127.229 48.7412V53.9428H119.939V57.8706H126.839V63.0722H119.939V67.1415H127.229V72.3431H113.818V48.7412H127.229ZM130.069 70.22L132.687 65.2661C134.386 66.8702 136.19 67.6723 138.101 67.6723C139.186 67.6723 139.977 67.401 140.472 66.8584C140.873 66.4574 141.074 65.962 141.074 65.3722C141.074 64.8061 140.85 64.3343 140.401 63.9568C140.024 63.6266 139.009 63.2137 137.358 62.7183L135.766 62.2229C134.185 61.7275 133.053 61.0906 132.369 60.3121C131.472 59.3449 131.024 57.9531 131.024 56.1367C131.024 53.7777 131.744 51.8787 133.183 50.4397C134.669 48.9535 136.686 48.2104 139.234 48.2104C141.663 48.2104 144.093 48.8473 146.523 50.1212L144.081 54.8982C142.737 53.8366 141.392 53.3059 140.047 53.3059C139.198 53.3059 138.526 53.5418 138.03 54.0136C137.629 54.4146 137.429 54.8392 137.429 55.2874C137.429 55.7121 137.535 56.0659 137.747 56.349C138.078 56.75 138.762 57.1039 139.8 57.4106L141.675 57.9767C143.657 58.5901 145.084 59.3685 145.957 60.3121C146.971 61.3973 147.478 62.8009 147.478 64.523C147.478 67 146.735 68.9815 145.249 70.4677C143.645 72.0718 141.321 72.8739 138.278 72.8739C136.603 72.8739 135.058 72.6144 133.643 72.0954C132.44 71.6708 131.248 71.0457 130.069 70.22ZM151.346 48.7412H157.467V62.7183C157.467 64.3697 157.868 65.5845 158.67 66.363C159.472 67.1179 160.44 67.4953 161.572 67.4953C162.704 67.4953 163.648 67.1533 164.403 66.4692C164.827 66.0917 165.146 65.6199 165.358 65.0538C165.594 64.464 165.724 64.004 165.747 63.6737C165.771 63.3199 165.783 62.8245 165.783 62.1876V48.7412H171.904V62.2937C171.904 63.3317 171.869 64.1927 171.798 64.8768C171.727 65.5374 171.48 66.3512 171.055 67.3184C170.654 68.262 170.053 69.1349 169.251 69.9369C167.316 71.8949 164.721 72.8739 161.466 72.8739C158.022 72.8739 155.415 71.9303 153.646 70.0431C152.112 68.3682 151.346 65.7851 151.346 62.2937V48.7412ZM176.847 48.7412H186.401C188.902 48.7412 190.824 49.4371 192.169 50.8289C193.514 52.1971 194.186 53.9664 194.186 56.1367C194.186 58.2126 193.561 59.8521 192.311 61.0552C191.438 61.8809 190.353 62.4235 189.055 62.6829L196.451 72.3431H188.843L182.969 63.2845V72.3431H176.847V48.7412ZM182.969 53.4828V59.3214H184.137C185.458 59.3214 186.449 59.0029 187.109 58.366C187.628 57.847 187.888 57.1864 187.888 56.3844C187.888 55.5587 187.616 54.8982 187.074 54.4028C186.46 53.7895 185.481 53.4828 184.137 53.4828H182.969ZM212.443 48.7412V53.9428H205.154V57.8706H212.054V63.0722H205.154V67.1415H212.443V72.3431H199.032V48.7412H212.443Z" fill="#231F20"/>
<path d="M230.31 5.67757L216.634 2.0277C212.438 0.907834 208.129 3.40149 207.009 7.59745L202.954 22.7924C201.834 26.9883 204.328 31.2976 208.524 32.4175L222.199 36.0674C226.395 37.1872 230.704 34.6936 231.824 30.4976L235.879 15.3027C236.999 11.1068 234.506 6.79744 230.31 5.67757Z" fill="#FEF5DC"/>
<path d="M217.919 21.4557L221.264 19.5202C221.456 19.4089 221.661 19.3819 221.875 19.4393C222.091 19.4968 222.254 19.6218 222.365 19.8143C222.477 20.0068 222.504 20.2106 222.446 20.4259C222.389 20.6412 222.264 20.8046 222.072 20.9159L218.005 23.2691C217.812 23.3805 217.615 23.4092 217.412 23.3551C217.21 23.301 217.053 23.1777 216.941 22.9852L215.758 20.9399C215.646 20.7474 215.619 20.5435 215.677 20.3283C215.734 20.113 215.859 19.9497 216.052 19.8383C216.244 19.7269 216.448 19.6999 216.664 19.7574C216.879 19.8148 217.042 19.9398 217.153 20.1323L217.919 21.4557ZM212.071 25.2256C211.653 25.1141 211.335 24.8699 211.117 24.4929C210.898 24.1158 210.845 23.7184 210.957 23.3006L213.796 12.6642C213.907 12.2463 214.151 11.9283 214.529 11.7102C214.905 11.492 215.302 11.4386 215.721 11.5502L216.48 11.7529L216.683 10.9933C216.741 10.778 216.862 10.6169 217.046 10.5102C217.231 10.4034 217.43 10.3788 217.646 10.4362C217.861 10.4937 218.022 10.6146 218.129 10.7991C218.235 10.9837 218.26 11.1835 218.202 11.3988L218 12.1585L224.078 13.7807L224.281 13.0209C224.338 12.8057 224.459 12.6447 224.643 12.5379C224.828 12.4312 225.028 12.4065 225.243 12.464C225.458 12.5214 225.619 12.6424 225.726 12.8268C225.833 13.0113 225.857 13.2112 225.8 13.4264L225.597 14.1862L226.357 14.389C226.775 14.5005 227.093 14.7447 227.311 15.1218C227.529 15.4988 227.583 15.8962 227.471 16.314L224.632 26.9504C224.521 27.3683 224.276 27.6863 223.899 27.9045C223.522 28.1226 223.125 28.1759 222.707 28.0644L212.071 25.2256ZM212.476 23.7062L223.112 26.5449L225.14 18.9475L214.504 16.1087L212.476 23.7062ZM214.909 14.5892L225.546 17.428L225.952 15.9085L215.315 13.0697L214.909 14.5892Z" fill="#FED17B"/>
</svg>
